<?xml version="1.0" encoding="UTF-8"?>
<!DOCTYPE svg PUBLIC "-//W3C//DTD SVG 1.1//EN" "http://www.w3.org/Graphics/SVG/1.1/DTD/svg11.dtd">
<!-- Creator: CorelDRAW 2019 (64-Bit) -->
<svg xmlns="http://www.w3.org/2000/svg" xml:space="preserve" width="52.3174mm" height="53.4232mm" version="1.1" style="shape-rendering:geometricPrecision; text-rendering:geometricPrecision; image-rendering:optimizeQuality; fill-rule:evenodd; clip-rule:evenodd"
viewBox="0 0 3389.97 3461.62"
 xmlns:xlink="http://www.w3.org/1999/xlink"
 xmlns:xodm="http://www.corel.com/coreldraw/odm/2003">
 <defs>
  <style type="text/css">
   <![CDATA[
    .str0 {stroke:#2B2A29;stroke-width:43.89;stroke-miterlimit:22.9256}
    .fil1 {fill:none}
    .fil2 {fill:#2B2A29}
    .fil0 {fill:#2B2A29;fill-rule:nonzero}
   ]]>
  </style>
 </defs>
 <g id="Layer_x0020_1">
  <metadata id="CorelCorpID_0Corel-Layer"/>
  <g id="_2158517970784">
   <path class="fil0" d="M195.22 915.99l71.59 41.17 55.27 -96.11 45.39 26.09 -55.26 96.13 75.66 43.49 62.33 -108.38 46.63 26.82 -95.25 165.65 -285.91 -164.39 95.25 -165.65 46.63 26.8 -62.33 108.38zm483.62 -184.32l-129.41 -24.94 35.64 123.27 -51.45 53.95 -48.56 -189.73 -190.75 -36.5 52.4 -54.97 129.08 24.62 -35.63 -122.63 51.45 -53.96 48.56 189.07 191.08 36.83 -52.42 54.98zm188.34 -425.22c9.52,14.83 14.91,30.98 16.21,48.45 1.31,17.48 -2.98,34.98 -12.85,52.51 -9.87,17.55 -26.19,33.62 -48.97,48.21l-46.48 29.79 68.25 106.45 -55.62 35.64 -177.72 -277.25 102.08 -65.44c21.44,-13.74 42.09,-21.76 61.93,-24 19.84,-2.27 37.7,0.67 53.57,8.79 15.87,8.14 29.06,20.44 39.58,36.84zm-76.76 105.81c15.38,-9.85 24.49,-20.65 27.4,-32.43 2.94,-11.77 0.32,-24.01 -7.83,-36.71 -17.3,-27.01 -41.07,-30.84 -71.25,-11.49l-44.09 28.27 51.69 80.62 44.09 -28.25zm304.5 -19.43l100.95 -39.82 19.23 48.73 -162.4 64.06 -120.85 -306.36 61.44 -24.23 101.63 257.62zm332.92 -38.68c-30.35,5.42 -59.5,3.29 -87.44,-6.43 -27.93,-9.71 -51.58,-25.85 -70.94,-48.42 -19.37,-22.58 -31.9,-49.83 -37.59,-81.71 -5.64,-31.58 -3.28,-61.32 7.08,-89.21 10.34,-27.89 26.96,-51.21 49.8,-70.01 22.86,-18.76 49.45,-30.88 79.8,-36.29 30.66,-5.48 59.87,-3.34 87.64,6.38 27.78,9.75 51.28,25.93 70.48,48.53 19.22,22.61 31.65,49.71 37.3,81.29 5.69,31.9 3.45,61.78 -6.76,89.64 -10.21,27.86 -26.73,51.18 -49.58,69.95 -22.84,18.78 -49.43,30.88 -79.78,36.29zm-10.38 -58.04c19.52,-3.48 35.91,-10.96 49.21,-22.45 13.29,-11.48 22.65,-26.16 28.07,-44.07 5.43,-17.9 6.2,-37.69 2.35,-59.36 -3.88,-21.67 -11.45,-39.9 -22.72,-54.66 -11.25,-14.76 -25.08,-25.15 -41.5,-31.17 -16.41,-6.02 -34.37,-7.29 -53.88,-3.81 -19.5,3.5 -35.99,10.91 -49.47,22.27 -13.46,11.35 -22.92,25.89 -28.39,43.66 -5.46,17.73 -6.25,37.45 -2.38,59.11 3.86,21.69 11.45,39.98 22.75,54.91 11.28,14.91 25.22,25.45 41.81,31.58 16.59,6.14 34.63,7.47 54.14,3.99zm419.08 45.14l-62.71 -133.47 -31.04 -2.36 -9.73 127.96 -65.87 -5.02 24.99 -328.37 123.27 9.38c25.4,1.93 46.69,8.05 63.88,18.34 17.2,10.29 29.7,23.4 37.47,39.29 7.79,15.89 10.95,33.25 9.54,52.07 -1.65,21.63 -9.42,40.68 -23.29,57.14 -13.85,16.45 -33.43,27.03 -58.72,31.72l68.44 139.12 -76.22 -5.81zm-90 -185.24l55.04 4.19c17.88,1.37 31.54,-1.92 40.97,-9.87 9.43,-7.97 14.75,-19.61 15.91,-34.98 1.14,-15.06 -2.36,-27.08 -10.5,-36.06 -8.15,-8.97 -21.16,-14.15 -39.04,-15.52l-55.04 -4.19 -7.34 96.44zm395.66 -30.4l-26.46 78.2 105.02 35.53 -16.77 49.61 -105.02 -35.53 -27.99 82.68 118.44 40.06 -17.24 50.95 -181 -61.24 105.69 -312.4 181.01 61.24 -17.24 50.95 -118.44 -40.06zm850.72 488.84l-227.21 238.37 -47.82 -45.57 147.79 -155.04 -211.65 94.17 -36.2 -34.51 83.59 -216.23 -147.8 155.04 -47.82 -45.58 227.24 -238.39 54.28 51.76 -93.13 249.52 244.77 -104.98 53.96 51.45zm-106.56 450.09c-15.36,-26.72 -23.21,-54.86 -23.52,-84.44 -0.31,-29.57 6.88,-57.3 21.59,-83.16 14.7,-25.87 36.07,-46.88 64.16,-63.03 27.81,-15.98 56.59,-23.83 86.35,-23.52 29.73,0.32 57.33,8.05 82.72,23.18 25.41,15.16 45.79,36.09 61.15,62.81 15.53,27 23.4,55.22 23.64,84.65 0.23,29.44 -7.04,57.01 -21.82,82.74 -14.77,25.73 -36.07,46.6 -63.86,62.6 -28.1,16.15 -56.97,24.13 -86.64,23.95 -29.68,-0.17 -57.2,-7.83 -82.62,-22.98 -25.4,-15.14 -45.77,-36.07 -61.14,-62.81zm51.13 -29.4c9.88,17.19 22.46,30.08 37.76,38.7 15.3,8.63 32.28,12.45 50.98,11.51 18.69,-0.96 37.58,-6.89 56.66,-17.88 19.08,-10.97 33.66,-24.27 43.74,-39.85 10.1,-15.6 15.19,-32.13 15.29,-49.61 0.12,-17.48 -4.77,-34.82 -14.64,-51.99 -9.88,-17.18 -22.43,-30.18 -37.67,-39.02 -15.24,-8.83 -32.13,-12.82 -50.69,-11.94 -18.54,0.87 -37.36,6.8 -56.44,17.76 -19.1,10.99 -33.75,24.3 -43.98,39.99 -10.22,15.65 -15.4,32.34 -15.57,50.04 -0.16,17.7 4.68,35.13 14.57,52.3zm92.4 412.07l108.7 -99.68 -7.01 -30.34 -125.04 28.88 -14.86 -64.36 320.87 -74.11 27.83 120.46c5.72,24.82 6.23,46.98 1.55,66.46 -4.7,19.5 -13.48,35.31 -26.33,47.49 -12.85,12.17 -28.46,20.37 -46.85,24.62 -21.15,4.88 -41.63,3.17 -61.48,-5.18 -19.84,-8.33 -35.77,-23.85 -47.79,-46.58l-112.38 106.82 -17.2 -74.47zm149.96 -141.16l12.42 53.79c4.04,17.47 11.25,29.51 21.67,36.16 10.39,6.63 23.11,8.22 38.14,4.75 14.7,-3.4 25.13,-10.32 31.27,-20.78 6.14,-10.46 7.19,-24.43 3.17,-41.9l-12.42 -53.79 -94.25 21.77zm153.18 354.27l-82.54 2.08 2.79 110.84 -52.35 1.32 -2.79 -110.84 -87.25 2.21 3.15 124.99 -53.77 1.35 -4.81 -191.04 329.7 -8.29 4.81 191.02 -53.79 1.35 -3.15 -124.99zm-177.26 558.5c29.53,13.34 52.95,31.96 70.27,55.87 17.34,23.88 27.3,50.32 29.9,79.28 2.6,28.96 -2.57,57.78 -15.54,86.44 -15.18,33.51 -37.06,59.02 -65.66,76.45 -28.6,17.44 -60.35,24.31 -95.27,20.59l31.3 -69.19c17.44,-0.4 32.56,-5.22 45.38,-14.44 12.8,-9.22 22.89,-22 30.28,-38.35 7.92,-17.47 10.85,-34.87 8.86,-52.19 -2.03,-17.29 -8.75,-33.12 -20.22,-47.45 -11.48,-14.33 -27.23,-26.05 -47.29,-35.13 -19.8,-8.94 -38.91,-13.02 -57.38,-12.22 -18.49,0.77 -34.91,6.15 -49.22,16.04 -14.32,9.93 -25.45,23.62 -33.35,41.11 -7.39,16.34 -10.24,32.39 -8.58,48.18 1.67,15.75 8.12,30.32 19.34,43.69l-31.32 69.21c-26.13,-23.9 -42.05,-52.25 -47.75,-85.04 -5.7,-32.79 -0.91,-66.09 14.38,-99.91 12.97,-28.67 31.19,-51.57 54.66,-68.74 23.47,-17.19 49.84,-27.17 79.09,-30.01 29.22,-2.82 58.61,2.44 88.12,15.8zm-426.93 409.25c20.17,-23.31 44.19,-39.97 72,-49.98 27.83,-10.02 56.38,-12.35 85.64,-6.97 29.26,5.37 56.13,18.65 80.62,39.86 24.25,20.99 41.12,45.6 50.62,73.81 9.49,28.19 11.25,56.77 5.31,85.74 -5.95,28.98 -19.03,55.1 -39.21,78.41 -20.38,23.54 -44.45,40.26 -72.16,50.16 -27.73,9.89 -56.17,12.1 -85.32,6.62 -29.16,-5.48 -55.87,-18.74 -80.11,-39.73 -24.49,-21.21 -41.53,-45.86 -51.11,-73.95 -9.6,-28.07 -11.43,-56.59 -5.48,-85.57 5.94,-28.96 19.02,-55.09 39.2,-78.4zm44.57 38.61c-12.98,14.98 -21.01,31.11 -24.11,48.4 -3.12,17.28 -1.15,34.57 5.89,51.92 7.04,17.33 18.88,33.2 35.53,47.63 16.64,14.4 33.99,23.81 52.02,28.21 18.05,4.39 35.33,3.76 51.89,-1.89 16.54,-5.62 31.29,-15.95 44.27,-30.93 12.97,-14.98 21.13,-31.13 24.46,-48.41 3.32,-17.31 1.54,-34.58 -5.39,-51.79 -6.93,-17.24 -18.71,-33.05 -35.35,-47.47 -16.64,-14.44 -34.04,-23.88 -52.21,-28.37 -18.16,-4.5 -35.62,-3.91 -52.38,1.75 -16.78,5.66 -31.65,15.99 -44.62,30.96zm-231.06 216.42l-85.32 67.06 -32.36 -41.18 137.26 -107.87 203.49 258.93 -51.94 40.82 -171.13 -217.75zm-210.39 134.44l-96.6 49.45 -23.85 -46.63 155.41 -79.54 150.04 293.14 -58.8 30.09 -126.19 -246.52zm-169.25 312.17l-22.54 -79.44 -106.65 30.29 -14.31 -50.39 106.67 -30.27 -23.85 -83.97 -120.27 34.16 -14.68 -51.76 183.81 -52.19 90.09 317.26 -183.83 52.19 -14.7 -51.74 120.27 -34.14zm-248.84 -49.32c2.46,32.31 -2.64,61.78 -15.27,88.45 -12.64,26.67 -31.04,48.1 -55.21,64.31 -24.16,16.18 -51.92,25.46 -83.3,27.86 -36.68,2.79 -69.55,-4.17 -98.58,-20.88 -29.03,-16.72 -50.31,-41.29 -63.8,-73.7l75.74 -5.77c8.72,15.1 20.19,26.07 34.44,32.87 14.25,6.81 30.3,9.53 48.16,8.16 19.15,-1.45 35.81,-7.22 50.02,-17.3 14.22,-10.06 24.88,-23.57 31.95,-40.51 7.06,-16.96 9.76,-36.39 8.08,-58.36 -1.63,-21.62 -7.24,-40.36 -16.81,-56.2 -9.56,-15.85 -22.13,-27.66 -37.7,-35.48 -15.58,-7.79 -32.94,-10.97 -52.08,-9.52 -17.86,1.37 -33.32,6.56 -46.35,15.6 -13.05,9.04 -22.73,21.69 -29.07,37.94l-75.73 5.75c8.41,-34.39 25.65,-61.95 51.66,-82.72 26.04,-20.75 57.55,-32.52 94.56,-35.35 31.37,-2.37 60.22,2.61 86.55,14.95 26.34,12.35 47.77,30.67 64.28,54.95 16.51,24.31 26.01,52.6 28.46,84.92zm-692.33 128.42l9.39 -52.5 86.38 15.43 48.52 -271.72 65.02 11.61 -48.51 271.71 86.39 15.43 -9.38 52.48 -237.82 -42.45zm-177.13 -60.77l105.55 -311.95 62.58 21.16 -105.55 311.95 -62.58 -21.16zm-108.53 -422.59c26.72,15.36 47.65,35.74 62.79,61.14 15.14,25.4 22.88,52.98 23.19,82.72 0.3,29.75 -7.6,58.67 -23.75,86.76 -16,27.81 -36.93,49.07 -62.79,63.77 -25.86,14.7 -53.61,21.87 -83.16,21.58 -29.57,-0.32 -57.73,-8.17 -84.45,-23.52 -26.99,-15.53 -48,-35.96 -63.01,-61.28 -15.01,-25.32 -22.6,-52.82 -22.78,-82.49 -0.16,-29.67 7.74,-58.41 23.73,-86.21 16.15,-28.09 37.08,-49.54 62.83,-64.3 25.73,-14.78 53.38,-22 82.95,-21.69 29.57,0.3 57.71,8.14 84.45,23.52zm-29.39 51.11c-17.2,-9.87 -34.58,-14.7 -52.12,-14.45 -17.55,0.25 -34.16,5.48 -49.85,15.71 -15.67,10.21 -29,24.87 -39.97,43.96 -10.98,19.08 -16.89,37.9 -17.76,56.46 -0.87,18.54 3.03,35.39 11.74,50.55 8.7,15.18 21.63,27.67 38.81,37.57 17.17,9.87 34.57,14.8 52.19,14.77 17.62,-0.03 34.23,-5.08 49.81,-15.18 15.6,-10.08 28.89,-24.66 39.87,-43.74 10.97,-19.1 16.94,-37.98 17.88,-56.67 0.94,-18.67 -2.95,-35.71 -11.71,-51.09 -8.76,-15.37 -21.73,-28 -38.89,-37.89zm-364.85 -390.08l45.6 47.81 -60.3 264.2 163.52 -155.98 45.6 47.8 -238.65 227.62 -45.58 -47.79 60.64 -264.52 -163.88 156.3 -45.59 -47.79 238.64 -227.64z"/>
   <path class="fil1 str0" d="M271.23 2550.5c-162.9,-245.7 -249.28,-529.68 -249.28,-819.5 0,-188.93 36.71,-376.25 108.33,-552.67"/>
   <path class="fil2" d="M1432.34 1498.39l0 464.84c0,23.79 11.57,44.22 31.97,56.45 20.4,12.23 43.87,12.82 64.85,1.62l435.36 -232.41c22,-11.74 34.82,-33.13 34.83,-58.07 0,-24.93 -12.83,-46.32 -34.83,-58.07l-435.35 -232.43c-20.98,-11.2 -44.46,-10.62 -64.86,1.61 -20.4,12.23 -31.97,32.67 -31.97,56.46z"/>
  </g>
 </g>
</svg>
