<?xml version="1.0" encoding="UTF-8"?>
<!DOCTYPE svg PUBLIC "-//W3C//DTD SVG 1.1//EN" "http://www.w3.org/Graphics/SVG/1.1/DTD/svg11.dtd">
<!-- Creator: CorelDRAW 2019 (64-Bit) -->
<svg xmlns="http://www.w3.org/2000/svg" xml:space="preserve" width="108.868mm" height="109.101mm" version="1.1" style="shape-rendering:geometricPrecision; text-rendering:geometricPrecision; image-rendering:optimizeQuality; fill-rule:evenodd; clip-rule:evenodd"
viewBox="0 0 792.99 794.69"
 xmlns:xlink="http://www.w3.org/1999/xlink"
 xmlns:xodm="http://www.corel.com/coreldraw/odm/2003">
 <defs>
  <style type="text/css">
   <![CDATA[
    .fil2 {fill:#EBECEC}
    .fil3 {fill:#3A57D8}
    .fil0 {fill:#DFDFDF}
    .fil1 {fill:white}
   ]]>
  </style>
 </defs>
 <g id="Layer_x0020_1">
  <metadata id="CorelCorpID_0Corel-Layer"/>
  <path id="Shadow_Down" class="fil0" d="M471.01 721.96c139.23,-32.63 245.06,-151.82 257.49,-297.74l-82.36 0c-8.24,132.4 -77.7,244.59 -175.13,297.74z"/>
  <path id="Center" class="fil1" d="M473.34 397.34l0 0c-0.16,0 -0.16,0 0,0 -0.16,-9.48 -1.86,-18.49 -4.97,-26.88 -10.88,-29.21 -39,-49.88 -71.95,-49.88 -32.94,0 -61.07,20.82 -71.95,49.88 -3.11,8.39 -4.82,17.4 -4.82,26.88 0,0 0,0 0,0l0.15 0c0,0 0,0 0,0 0,9.48 1.71,18.49 4.82,26.88 10.88,29.21 39,49.88 71.95,49.88 32.94,0 61.07,-20.82 71.95,-49.88 3.11,-8.24 4.82,-17.4 4.82,-26.88 0,0 0,0 0,0z"/>
  <path id="Up" class="fil1" d="M396.57 267.12c62.78,0 115.15,44.44 127.58,103.49l208.85 0c-14.76,-171.87 -158.81,-306.59 -334.41,-306.59 -175.6,0 -319.49,134.73 -334.25,306.44l204.65 0c12.43,-59.05 64.8,-103.34 127.58,-103.34z"/>
  <path id="Shadow_Up" class="fil2" d="M646.14 370.46l86.71 0c-12.74,-148.4 -122.14,-269.3 -264.95,-299.29 99.14,52.37 169.85,165.65 178.24,299.29z"/>
  <path id="Line" class="fil3" d="M398.59 64.02c175.6,0 319.65,134.73 334.25,306.44l60.15 0c-13.82,-207.01 -186.04,-370.46 -396.57,-370.46 -210.38,0 -382.59,163.58 -396.42,370.46l64.34 0c14.76,-171.71 158.81,-306.44 334.25,-306.44zm125.4 306.44c-12.43,-59.05 -64.8,-103.49 -127.58,-103.49 -62.78,0 -115.15,44.44 -127.58,103.49l55.63 0c10.88,-29.21 39,-49.88 71.95,-49.88 32.94,0 61.07,20.82 71.95,49.88l55.63 0zm-55.48 53.77c-10.88,29.21 -39,49.88 -71.95,49.88 -32.94,0 -61.07,-20.82 -71.95,-49.88l-324.63 0c13.83,206.88 186.04,370.46 396.42,370.46 210.38,0 382.74,-163.45 396.57,-370.46l-324.47 0z"/>
 </g>
</svg>
