<svg width="256" height="256" viewBox="0 0 256 256" fill="none" xmlns="http://www.w3.org/2000/svg">
<path d="M224.142 116.998C219.308 151.585 198.495 183.61 168.846 202.068C139.198 220.529 101.276 225.077 68.1036 214.151C82.4243 166.52 110.881 123.237 148.936 91.2087C121.89 104.849 100.583 128.021 84.5613 153.726C68.5393 179.431 57.349 207.795 46.2484 235.975C35.7095 234.33 30.7551 227.443 30.7551 227.443C31.2431 223.076 39.4954 205.743 47.8622 189.334C29.4601 163.279 42.5014 123.914 66.2544 102.198C84.5631 85.4586 115.435 76.1838 138.173 66.2634C160.911 56.345 184.059 42.6289 194.279 20.0248C217.735 45.9053 228.974 82.408 224.142 116.998Z" fill="#5FA53A"/>
</svg>
