<svg width="954" height="220" viewBox="0 0 954 220" fill="none" xmlns="http://www.w3.org/2000/svg">
<path d="M162.305 143.788C171.611 134.494 171.073 119.033 160.691 110.452C151.645 102.976 138.228 104.094 129.924 112.387L121.22 121.08L112.05 130.241C101.535 140.743 87.7218 145.993 73.9107 145.993C60.0995 145.993 46.2883 140.743 35.773 130.243C14.7445 109.236 14.7445 75.0625 35.773 54.06L44.9472 44.8972C61.5327 28.3302 49.7862 0.00584412 26.3303 0.00584412C11.7897 0.00584412 0 11.7789 0 26.3034V193.702C0 208.225 11.7877 220 26.3303 220H75.1008C82.0829 220 88.7806 217.229 93.7177 212.298L162.305 143.788Z" fill="white"/>
<path d="M145.161 0.00388451C138.179 0.00388451 131.481 2.77487 126.544 7.70579L57.9525 76.212C49.1548 84.9988 49.1548 99.2961 57.9525 108.085C66.7502 116.868 81.0672 116.87 89.8629 108.083L99.0351 98.922V98.9201L107.398 90.5681C128.152 69.8437 161.954 68.5218 183.312 88.6235C205.505 109.512 205.897 144.556 184.483 165.942L175.31 175.103C158.725 191.67 170.471 219.994 193.927 219.994C208.468 219.994 220.258 208.221 220.258 193.697V26.2976C220.258 11.7751 208.47 0 193.927 0H145.161V0.00388451Z" fill="#FE9102"/>
<path d="M369.208 74.029C368.232 73.0547 366.42 71.7324 363.773 70.0621C361.264 68.3918 358.128 66.7911 354.366 65.26C350.742 63.5898 346.77 62.1979 342.45 61.0843C338.13 59.9708 333.74 59.4141 329.28 59.4141C321.337 59.4141 315.414 60.8756 311.512 63.7985C307.609 66.7215 305.658 70.8276 305.658 76.1168C305.658 79.179 306.355 81.754 307.749 83.8419C309.282 85.7905 311.442 87.5304 314.229 89.0615C317.016 90.5926 320.5 91.9845 324.681 93.2372C329.002 94.4899 333.949 95.8122 339.523 97.2041C346.77 99.1528 353.32 101.241 359.174 103.468C365.166 105.695 370.183 108.478 374.225 111.819C378.406 115.16 381.611 119.196 383.841 123.929C386.071 128.522 387.185 134.229 387.185 141.049C387.185 148.983 385.652 155.803 382.586 161.51C379.66 167.077 375.688 171.601 370.671 175.081C365.654 178.561 359.801 181.136 353.111 182.806C346.422 184.337 339.454 185.102 332.207 185.102C321.058 185.102 310.048 183.432 299.178 180.092C288.308 176.751 278.552 172.019 269.912 165.894L282.663 141.049C283.918 142.302 286.147 143.972 289.353 146.06C292.698 148.008 296.6 150.027 301.059 152.114C305.519 154.063 310.466 155.733 315.901 157.125C321.337 158.517 326.911 159.213 332.625 159.213C348.512 159.213 356.456 154.133 356.456 143.972C356.456 140.631 355.55 137.848 353.738 135.62C351.927 133.393 349.348 131.445 346.004 129.775C342.659 128.104 338.618 126.573 333.879 125.181C329.141 123.789 323.845 122.328 317.992 120.797C310.884 118.848 304.683 116.76 299.387 114.533C294.231 112.167 289.91 109.453 286.426 106.391C282.942 103.328 280.294 99.7095 278.483 95.5338C276.81 91.3581 275.974 86.4169 275.974 80.7101C275.974 73.1939 277.368 66.5127 280.155 60.6668C282.942 54.8208 286.775 49.9492 291.652 46.0518C296.669 42.1545 302.453 39.2315 309.003 37.2829C315.553 35.195 322.591 34.1511 330.116 34.1511C340.569 34.1511 350.185 35.8214 358.964 39.1619C367.744 42.3633 375.409 46.191 381.959 50.6451L369.208 74.029Z" fill="white"/>
<path d="M399.568 128.731C399.568 121.075 400.892 113.837 403.54 107.017C406.188 100.197 410.02 94.2115 415.037 89.0615C420.054 83.9115 426.117 79.8054 433.224 76.7432C440.332 73.681 448.345 72.1499 457.264 72.1499C469.249 72.1499 479.423 74.7249 487.785 79.875C496.286 85.025 502.627 91.7757 506.808 100.127L479.423 108.478C477.054 104.442 473.918 101.38 470.016 99.2919C466.114 97.0649 461.793 95.9514 457.055 95.9514C453.014 95.9514 449.251 96.7865 445.767 98.4568C442.283 99.9879 439.217 102.215 436.569 105.138C434.06 107.922 432.04 111.332 430.507 115.368C429.113 119.405 428.416 123.859 428.416 128.731C428.416 133.602 429.183 138.056 430.716 142.093C432.249 146.129 434.269 149.609 436.778 152.532C439.426 155.455 442.492 157.752 445.976 159.422C449.46 160.953 453.153 161.719 457.055 161.719C462.072 161.719 466.671 160.466 470.852 157.96C475.172 155.455 478.169 152.393 479.841 148.774L507.226 157.125C503.463 165.477 497.261 172.297 488.621 177.586C479.98 182.875 469.598 185.52 457.473 185.52C448.554 185.52 440.541 183.989 433.433 180.927C426.326 177.865 420.263 173.758 415.246 168.608C410.229 163.319 406.327 157.264 403.54 150.444C400.892 143.485 399.568 136.247 399.568 128.731Z" fill="white"/>
<path d="M554.355 185.52C549.06 185.52 544.112 184.685 539.513 183.015C534.914 181.205 530.942 178.769 527.598 175.707C524.253 172.506 521.605 168.817 519.654 164.642C517.842 160.466 516.936 155.873 516.936 150.862C516.936 145.712 518.051 140.979 520.281 136.664C522.65 132.21 525.856 128.452 529.897 125.39C534.078 122.328 539.025 119.962 544.739 118.291C550.453 116.482 556.724 115.577 563.553 115.577C568.431 115.577 573.169 115.995 577.768 116.83C582.507 117.665 586.687 118.848 590.311 120.379V114.116C590.311 106.878 588.22 101.31 584.04 97.4129C579.998 93.5156 573.936 91.5669 565.853 91.5669C559.999 91.5669 554.286 92.6108 548.711 94.6987C543.137 96.7865 537.423 99.8487 531.569 103.885L522.999 86.1385C537.074 76.8128 552.265 72.1499 568.57 72.1499C584.318 72.1499 596.513 76.0472 605.153 83.8419C613.933 91.4973 618.323 102.632 618.323 117.247V151.279C618.323 154.202 618.88 156.29 619.995 157.543C621.11 158.796 623.061 159.492 625.848 159.631V183.432C623.2 183.989 620.692 184.337 618.323 184.476C616.093 184.754 614.142 184.894 612.47 184.894C607.174 184.754 603.132 183.571 600.345 181.344C597.558 178.978 595.816 175.846 595.119 171.949L594.492 165.894C589.614 172.297 583.691 177.169 576.723 180.509C569.755 183.85 562.299 185.52 554.355 185.52ZM562.299 165.059C567.037 165.059 571.497 164.224 575.678 162.554C579.998 160.883 583.343 158.656 585.712 155.873C588.778 153.506 590.311 150.862 590.311 147.939V135.412C586.966 134.159 583.343 133.185 579.441 132.489C575.538 131.654 571.776 131.236 568.152 131.236C560.905 131.236 554.982 132.906 550.383 136.247C545.785 139.448 543.485 143.554 543.485 148.565C543.485 153.298 545.297 157.264 548.92 160.466C552.544 163.528 557.003 165.059 562.299 165.059Z" fill="white"/>
<path d="M644.897 31.0193H672.909V147.104C672.909 155.594 676.742 159.84 684.407 159.84C685.94 159.84 687.682 159.561 689.633 159.004C691.723 158.448 693.674 157.821 695.486 157.125L699.249 179.465C695.486 181.275 691.096 182.667 686.079 183.641C681.062 184.615 676.533 185.102 672.491 185.102C663.711 185.102 656.883 182.806 652.005 178.213C647.267 173.48 644.897 166.799 644.897 158.169V31.0193Z" fill="white"/>
<path d="M762.46 185.52C753.68 185.52 745.737 184.059 738.629 181.136C731.522 178.073 725.459 173.967 720.442 168.817C715.425 163.667 711.523 157.682 708.736 150.862C706.088 144.041 704.764 136.873 704.764 129.357C704.764 121.562 706.088 114.255 708.736 107.435C711.384 100.475 715.216 94.4203 720.233 89.2703C725.25 83.9811 731.313 79.8054 738.42 76.7432C745.667 73.681 753.75 72.1499 762.669 72.1499C771.589 72.1499 779.532 73.681 786.5 76.7432C793.608 79.8054 799.6 83.9115 804.478 89.0615C809.495 94.2115 813.258 100.197 815.766 107.017C818.414 113.837 819.738 120.936 819.738 128.313C819.738 130.122 819.669 131.862 819.529 133.533C819.529 135.203 819.39 136.595 819.111 137.708H734.448C734.866 142.023 735.912 145.851 737.584 149.191C739.256 152.532 741.417 155.385 744.064 157.752C746.712 160.118 749.709 161.927 753.053 163.18C756.398 164.433 759.882 165.059 763.505 165.059C769.08 165.059 774.306 163.737 779.184 161.092C784.201 158.308 787.615 154.689 789.427 150.235L813.467 156.917C809.425 165.268 802.945 172.158 794.026 177.586C785.246 182.875 774.724 185.52 762.46 185.52ZM790.89 119.544C790.193 111.332 787.128 104.79 781.692 99.9183C776.397 94.9075 769.916 92.402 762.251 92.402C758.488 92.402 754.935 93.098 751.59 94.4899C748.385 95.7426 745.528 97.5521 743.019 99.9183C740.511 102.285 738.42 105.138 736.748 108.478C735.215 111.819 734.309 115.508 734.03 119.544H790.89Z" fill="white"/>
<path d="M849.06 35.195L886.061 90.3142L922.853 35.195H954L901.112 110.358L952.328 183.432H921.18L886.061 130.401L850.732 183.432H819.376L870.591 110.358L817.703 35.195H849.06Z" fill="#FE9102"/>
</svg>
