<svg width="24" height="24" viewBox="0 0 24 24" fill="none" xmlns="http://www.w3.org/2000/svg">
<path d="M10.4755 11.4896C11.3411 11.0759 11.793 10.4497 11.793 9.47519C11.793 7.55331 10.3611 7.08508 8.70875 7.08508H4.15991V16.7326H8.83669C10.5898 16.7326 12.2367 15.8915 12.2367 13.9315C12.2367 12.7201 11.6624 11.8245 10.4755 11.4896ZM6.28052 8.73203H8.27047C9.03541 8.73203 9.72413 8.94708 9.72413 9.83453C9.72413 10.6539 9.18786 10.9833 8.43108 10.9833H6.28052V8.73203ZM8.54813 15.0939H6.28052V12.437H8.59169C9.52541 12.437 10.1161 12.8263 10.1161 13.8144C10.1161 14.789 9.41108 15.0939 8.54813 15.0939ZM18.3073 8.54147H14.3955V7.59142H18.3073V8.54147ZM19.8399 13.3407C19.8399 11.2746 18.6312 9.55142 16.4399 9.55142C14.3111 9.55142 12.8656 11.1521 12.8656 13.2482C12.8656 15.4232 14.2349 16.915 16.4399 16.915C18.1086 16.915 19.1893 16.1637 19.7092 14.5658H18.016C17.8336 15.1619 17.0823 15.4777 16.4997 15.4777C15.3755 15.4777 14.7847 14.8189 14.7847 13.7001H19.8236C19.8317 13.5857 19.8399 13.4632 19.8399 13.3407ZM14.7875 12.4914C14.8501 11.574 15.4599 10.9996 16.38 10.9996C17.3436 10.9996 17.8282 11.5659 17.9099 12.4914H14.7875Z" fill="black"/>
</svg>
