<svg xmlns="http://www.w3.org/2000/svg" viewBox="0 0 16 16" id="Behance--Streamline-Font-Awesome" height="16" width="16">
  <desc>
    Behance Streamline Icon: https://streamlinehq.com
  </desc>
<!--! Font Awesome Free 6.5.2 by @fontawesome - https://fontawesome.com License - https://fontawesome.com/license/free (Icons: CC BY 4.0, Fonts: SIL OFL 1.1, Code: MIT License) Copyright 2024 Fonticons, Inc.-->
  <path d="M6.475555555555555 7.489583333333333c0.8656666666666667 -0.4137777777777778 1.3175555555555556 -1.0398888888888889 1.3175555555555556 -2.014444444444444 0 -1.9218888888888888 -1.4318888888888888 -2.390111111111111 -3.084277777777778 -2.390111111111111H0.15999999999999998v9.647555555555556h4.676777777777778c1.753111111111111 0 3.4000555555555554 -0.8411666666666666 3.4000555555555554 -2.8011666666666666 0 -1.2113888888888888 -0.5743888888888888 -2.107 -1.7612777777777777 -2.4418333333333333ZM2.280611111111111 4.731972222222222h1.9899444444444445c0.7649444444444444 0 1.4536666666666667 0.21505555555555556 1.4536666666666667 1.1024999999999998 0 0.8193888888888888 -0.5362777777777777 1.1487777777777777 -1.2930555555555554 1.1487777777777777h-2.1505555555555556v-2.2512777777777777Zm2.267611111111111 6.361833333333333H2.280611111111111v-2.6568888888888886h2.3111666666666664c0.9337222222222221 0 1.5244444444444445 0.3892777777777777 1.5244444444444445 1.3774444444444445 0 0.9745555555555556 -0.7050555555555555 1.2794444444444444 -1.5679999999999998 1.2794444444444444Zm9.759166666666665 -6.552388888888888H10.395555555555555v-0.9500555555555554h3.911833333333333v0.9500555555555554Zm1.532611111111111 4.799277777777777c0 -2.0661666666666667 -1.2086666666666666 -3.789333333333333 -3.4000555555555554 -3.789333333333333 -2.1287777777777777 0 -3.5742777777777777 1.6006666666666667 -3.5742777777777777 3.6967777777777777 0 2.1750555555555557 1.3692777777777776 3.666833333333333 3.5742777777777777 3.666833333333333 1.668722222222222 0 2.7494444444444444 -0.7513333333333333 3.2693888888888885 -2.3492777777777776H14.01611111111111c-0.18238888888888888 0.5961666666666666 -0.9337222222222221 0.9119444444444443 -1.5162777777777776 0.9119444444444443 -1.1242777777777777 0 -1.7149999999999999 -0.6587777777777778 -1.7149999999999999 -1.777611111111111h5.038833333333333c0.008166666666666666 -0.11433333333333331 0.01633333333333333 -0.2368333333333333 0.01633333333333333 -0.35933333333333334Zm-5.052444444444444 -0.8493333333333333c0.0626111111111111 -0.9173888888888889 0.6723888888888888 -1.4917777777777776 1.5924999999999998 -1.4917777777777776 0.9636666666666667 0 1.4482222222222223 0.5662222222222222 1.5298888888888889 1.4917777777777776H10.787555555555555Z" fill="#000000" stroke-width="0.0278"></path>
</svg>