<svg style="width:100%;height:100%;" xmlns="http://www.w3.org/2000/svg"><defs><svg viewBox="0 0 80 19" id="svg12589052967"><path d="M 1.96 18.55 L 19.06 18.55 L 19.06 1.45 L 1.96 1.45 Z M 15.77 8.355 L 12.156 8.355 L 12.156 4.74 L 15.769 4.74 L 15.769 8.354 Z M 5.25 4.74 L 8.866 4.74 L 8.866 11.644 L 15.768 11.644 L 15.768 15.258 L 5.251 15.258 L 5.251 4.74 Z M 30.196 1.45 C 25.474 1.45 21.646 5.278 21.646 10 C 21.646 14.722 25.474 18.55 30.196 18.55 C 34.918 18.55 38.746 14.722 38.746 10 C 38.74 5.28 34.916 1.456 30.196 1.45 Z M 30.196 15.259 C 28.068 15.259 26.15 13.978 25.336 12.013 C 24.521 10.047 24.971 7.785 26.475 6.28 C 27.98 4.775 30.242 4.325 32.208 5.139 C 34.173 5.953 35.455 7.871 35.455 9.999 C 35.451 12.902 33.099 15.255 30.196 15.259 Z M 69.342 1.449 C 64.62 1.449 60.792 5.277 60.792 9.999 C 60.792 14.721 64.62 18.549 69.342 18.549 C 74.064 18.549 77.892 14.721 77.892 9.999 C 77.886 5.279 74.062 1.455 69.342 1.449 Z M 69.342 15.259 C 67.214 15.26 65.296 13.979 64.481 12.013 C 63.666 10.048 64.116 7.785 65.62 6.28 C 67.124 4.776 69.387 4.325 71.352 5.139 C 73.318 5.953 74.6 7.871 74.6 9.999 C 74.597 12.902 72.245 15.255 69.342 15.259 Z M 49.769 1.449 C 45.047 1.449 41.219 5.277 41.219 9.999 C 41.219 14.721 45.047 18.549 49.769 18.549 C 54.491 18.549 58.319 14.721 58.319 9.999 C 58.313 5.279 54.489 1.455 49.769 1.449 Z M 49.769 15.259 C 47.079 15.261 44.82 13.233 44.534 10.558 C 44.248 7.883 46.027 5.424 48.657 4.857 C 51.287 4.29 53.92 5.8 54.761 8.355 L 49.769 8.355 L 49.769 11.645 L 54.761 11.645 C 54.049 13.799 52.038 15.255 49.769 15.259 Z" fill="var(--token-c5c4fdcb-9482-48bb-aedf-353188472aae, rgb(21, 21, 21))"></path></svg></defs><use href="#svg12589052967"></use></svg>