<svg width="546" height="200" viewBox="0 0 546 200" fill="none" xmlns="http://www.w3.org/2000/svg">
<path d="M95.6904 93.8982C92.8171 96.7895 91.3781 100.809 91.7693 104.87L91.7019 104.802C92.1066 109.578 90.3844 114.29 86.994 117.681C83.6035 121.071 78.8911 122.793 74.1157 122.393L74.1832 122.461C68.4006 121.921 62.8967 125.069 60.4281 130.325C57.9595 135.582 59.0521 141.827 63.162 145.933C67.2719 150.038 73.5132 151.126 78.7697 148.653C84.0262 146.18 87.1693 140.676 86.6252 134.894L86.6972 134.961C86.2925 130.181 88.0147 125.469 91.4051 122.078C94.7956 118.688 99.508 116.966 104.288 117.37L104.216 117.303C110.579 117.883 116.501 114.007 118.515 107.946C120.534 101.884 118.115 95.2337 112.674 91.8837C107.238 88.5337 100.209 89.3701 95.7039 93.8982H95.6904Z" fill="black"/>
<path d="M68.0452 113.625L67.9732 113.557C72.0337 113.967 76.0671 112.528 78.9539 109.641C81.8407 106.754 83.2796 102.725 82.8749 98.6646L82.9469 98.7321C82.5467 93.9567 84.2689 89.2443 87.6593 85.8539C91.0497 82.4634 95.7622 80.7412 100.538 81.1459L100.466 81.0785C106.248 81.6226 111.752 78.4794 114.225 73.2229C116.698 67.9619 115.61 61.7207 111.5 57.6108C107.39 53.5009 101.149 52.4127 95.8881 54.8858C90.6316 57.359 87.4884 62.8628 88.0325 68.6454L87.9651 68.5735C88.3653 73.3488 86.6431 78.0613 83.2527 81.4517C79.8622 84.8421 75.1498 86.5643 70.3744 86.1596L70.4419 86.2316C66.3814 85.8224 62.348 87.2613 59.4612 90.1481C56.5744 93.0349 55.1355 97.0639 55.5402 101.124L55.4727 101.057C55.8729 105.832 54.1507 110.545 50.7648 113.935C47.3744 117.326 42.6619 119.048 37.8865 118.647L37.954 118.715C32.1714 118.171 26.6676 121.314 24.1944 126.57C21.7213 131.832 22.8095 138.073 26.9194 142.183C31.0292 146.293 37.2705 147.381 42.5315 144.908C47.788 142.434 50.9312 136.931 50.3871 131.148L50.4545 131.215C50.0498 126.436 51.772 121.723 55.1625 118.333C58.5529 114.942 63.2653 113.22 68.0452 113.625Z" fill="black"/>
<path d="M42.9321 106.102C45.8054 103.211 47.2443 99.1861 46.8486 95.1302L46.9205 95.1977C46.5158 90.4178 48.2425 85.7054 51.633 82.3149C55.0234 78.9245 59.7358 77.2023 64.5157 77.607L64.4437 77.5396C70.2264 78.0791 75.7257 74.9405 78.1988 69.684C80.6674 64.4275 79.5748 58.1862 75.4694 54.0808C71.364 49.9754 65.1227 48.8828 59.8662 51.3514C54.6097 53.8245 51.4711 59.3239 52.0107 65.1065L51.9432 65.039C52.3479 69.8144 50.6257 74.5268 47.2353 77.9173C43.8449 81.3077 39.1324 83.0299 34.3571 82.6297L34.4245 82.6971C28.0663 82.1216 22.1443 86.0021 20.1298 92.059C18.1154 98.1205 20.5345 104.771 25.9709 108.116C31.4118 111.466 38.4355 110.634 42.941 106.106L42.9321 106.102ZM159.012 68.7307H170.136V122.888H159.012V68.7307ZM176.44 104.344C176.409 96.3848 181.18 89.1857 188.523 86.119C195.87 83.0479 204.342 84.7116 209.98 90.3324C215.619 95.9486 217.319 104.416 214.279 111.772C211.235 119.129 204.058 123.926 196.099 123.926C190.879 123.985 185.856 121.943 182.16 118.261C178.464 114.578 176.4 109.564 176.44 104.344ZM204.634 104.344C204.508 99.6583 200.632 95.9531 195.947 96.034C191.261 96.1195 187.515 99.9641 187.56 104.65C187.601 109.335 191.414 113.112 196.099 113.112C198.424 113.175 200.668 112.262 202.287 110.598C203.91 108.935 204.76 106.664 204.634 104.344ZM260.117 85.7908V121.017C260.117 133.482 250.396 138.752 240.53 138.752C233.448 139.282 226.663 135.811 222.949 129.758L232.445 124.268C234.015 127.434 237.383 129.295 240.899 128.94C243.125 129.25 245.369 128.535 247.001 126.989C248.633 125.446 249.474 123.243 249.285 121.004V117.613C246.641 120.846 242.621 122.636 238.448 122.434C228.322 122.051 220.309 113.728 220.309 103.593C220.309 93.4575 228.322 85.1343 238.448 84.7521C242.621 84.5497 246.641 86.3394 249.285 89.5724V85.7863L260.117 85.7908ZM249.29 103.597C249.442 99.9281 247.347 96.5332 244.002 95.0268C240.652 93.5159 236.722 94.1949 234.073 96.74C231.425 99.2806 230.588 103.179 231.964 106.588C233.336 109.991 236.641 112.222 240.314 112.217C242.68 112.379 245.004 111.538 246.713 109.897C248.422 108.256 249.357 105.967 249.29 103.597ZM266.422 104.344C266.39 96.3848 271.161 89.1947 278.504 86.128C285.847 83.0614 294.314 84.7206 299.953 90.3413C305.591 95.9576 307.287 104.416 304.251 111.772C301.212 119.129 294.04 123.926 286.081 123.926C280.86 123.985 275.837 121.943 272.141 118.261C268.445 114.578 266.381 109.564 266.422 104.344ZM294.615 104.344C294.494 99.6538 290.613 95.9441 285.923 96.025C281.233 96.1105 277.488 99.9596 277.533 104.65C277.573 109.339 281.391 113.117 286.081 113.112C288.405 113.175 290.649 112.262 292.268 110.598C293.891 108.935 294.741 106.664 294.615 104.344ZM310.933 75.8533C310.933 72.1661 313.924 69.1759 317.611 69.1759C321.298 69.1759 324.288 72.1661 324.288 75.8533C324.288 79.5405 321.298 82.5308 317.611 82.5308C313.937 82.4948 310.969 79.527 310.933 75.8533ZM312.058 85.7908H323.191V122.888H312.04L312.058 85.7908ZM371.246 104.344C371.507 109.294 369.785 114.151 366.453 117.825C363.125 121.503 358.467 123.697 353.512 123.926C349.334 124.151 345.278 122.487 342.463 119.398V137.726H331.334V85.7908H342.463V89.2802C345.278 86.191 349.334 84.5273 353.512 84.7566C358.467 84.9859 363.125 87.1847 366.453 90.863C369.785 94.5367 371.507 99.3885 371.246 104.344ZM360.117 104.344C360 99.4964 355.994 95.6518 351.142 95.7283C346.295 95.8092 342.419 99.7842 342.459 104.632C342.499 109.483 346.443 113.391 351.29 113.391C353.7 113.499 356.043 112.572 357.729 110.846C359.416 109.119 360.283 106.754 360.117 104.344ZM405.587 111.759C405.587 120.289 398.172 123.926 390.163 123.926C383.54 124.529 377.218 121.031 374.209 115.1L383.85 109.609C384.655 112.37 387.277 114.191 390.145 113.984C392.812 113.984 394.147 113.166 394.147 111.691C394.147 107.599 375.9 109.758 375.9 96.9244C375.9 88.8305 382.726 84.7566 390.442 84.7566C396.351 84.5677 401.89 87.6074 404.908 92.6931L395.411 97.8102C394.561 95.8227 392.605 94.5367 390.442 94.5457C388.509 94.5457 387.321 95.2966 387.321 96.6231C387.339 100.854 405.587 98.0305 405.587 111.759ZM446.24 85.7908V122.888H435.111V119.403C432.508 122.523 428.564 124.205 424.508 123.931C417.012 123.931 410.641 118.589 410.641 108.566V85.7953H421.77V106.938C421.577 108.728 422.188 110.509 423.434 111.804C424.675 113.103 426.428 113.791 428.222 113.683C432.305 113.683 435.125 111.309 435.125 106.039V85.8043L446.24 85.7908ZM510.051 100.112V122.888H498.922V101.079C498.922 97.365 497.146 94.9953 493.585 94.9953C489.875 94.9953 487.793 97.5899 487.793 101.965V122.888H476.669V101.079C476.669 97.365 474.888 94.9953 471.327 94.9953C467.617 94.9953 465.54 97.5899 465.54 101.965V122.888H454.411V85.7908H465.54V89.1992C467.887 86.128 471.628 84.4508 475.482 84.7476C479.358 84.5632 483.045 86.4203 485.199 89.6489C487.699 86.2719 491.764 84.4238 495.955 84.7521C504.476 84.7566 510.051 90.8405 510.051 100.112ZM519.467 85.566C524.027 85.566 527.728 81.8698 527.728 77.3102C527.728 72.7462 524.027 69.05 519.467 69.05C514.908 69.05 511.212 72.7462 511.212 77.3102C511.212 81.8698 514.908 85.566 519.467 85.566Z" fill="black"/>
</svg>
