<svg width="716" height="200" viewBox="0 0 716 200" fill="none" xmlns="http://www.w3.org/2000/svg">
<path d="M176.838 72.9998C178.676 72.9998 179.289 73.6683 179.289 75.4683V116.2H200.071C201.858 116.2 202.522 116.868 202.522 118.668V122.268C202.522 124.068 201.858 124.737 200.071 124.737H172.702C170.915 124.737 170.2 124.068 170.2 122.268V75.4683C170.2 73.6683 170.915 72.9998 172.702 72.9998H176.838Z" fill="black"/>
<path d="M220.647 90.9485C220.647 79.0685 228.102 71.9199 241.072 71.9199C254.041 71.9199 261.496 79.0685 261.496 90.9485V106.788C261.496 118.668 253.99 125.817 241.072 125.817C228.153 125.817 220.647 118.668 220.647 106.788V90.9485ZM252.918 90.9485C252.918 84.2628 248.782 80.6628 241.327 80.6628C233.872 80.6628 229.787 84.3142 229.787 90.9485V106.891C229.787 113.628 233.872 117.177 241.327 117.177C248.782 117.177 252.918 113.474 252.918 106.891V90.9485Z" fill="black"/>
<path d="M322.309 96.3998C324.301 96.3998 324.76 97.0684 324.76 98.8684V108.64C324.816 110.944 324.357 113.227 323.423 115.326C322.483 117.429 321.094 119.291 319.348 120.777C315.018 124.248 309.554 125.976 304.03 125.611C290.805 125.611 283.605 118.463 283.605 106.583V90.6398C283.605 78.9141 291.06 71.7141 304.03 71.7141C314.242 71.7141 320.88 75.777 323.688 83.9027C323.846 84.2061 323.933 84.5455 323.933 84.8901C323.938 85.2347 323.867 85.5741 323.714 85.8827C323.565 86.1913 323.351 86.4638 323.08 86.6747C322.81 86.8804 322.493 87.0244 322.156 87.0913L318.174 88.4798C316.437 89.097 315.723 88.737 315.11 86.937C314.262 84.741 312.715 82.8895 310.708 81.681C308.702 80.4673 306.353 79.9633 304.03 80.2513C296.524 80.2513 292.439 83.9027 292.439 90.537V106.891C292.439 113.628 296.575 117.177 304.03 117.177C311.485 117.177 316.08 113.731 316.08 108.691V104.886H305C303.162 104.886 302.498 104.166 302.498 102.366V98.8684C302.498 97.0684 303.162 96.3998 305 96.3998H322.309Z" fill="black"/>
<path d="M345.848 90.9485C345.848 79.0685 353.303 71.9199 366.272 71.9199C379.242 71.9199 386.697 79.0685 386.697 90.9485V106.788C386.697 118.668 379.191 125.817 366.272 125.817C353.354 125.817 345.848 118.668 345.848 106.788V90.9485ZM378.067 90.9485C378.067 84.2628 373.931 80.6628 366.528 80.6628C359.124 80.6628 354.937 84.3142 354.937 90.9485V106.891C354.937 113.628 359.073 117.177 366.528 117.177C373.983 117.177 378.067 113.474 378.067 106.891V90.9485Z" fill="black"/>
<path d="M410.746 74.4912C410.746 73.3598 411.104 72.9998 412.227 72.9998H414.576C415.699 72.9998 415.954 73.3598 415.954 74.4912V123.245C415.954 124.377 415.954 124.737 414.576 124.737H412.227C411.104 124.737 410.746 124.377 410.746 123.245V74.4912Z" fill="black"/>
<path d="M462.47 72.9998C466.723 72.9998 470.798 74.702 473.805 77.7312C476.813 80.7552 478.503 84.8643 478.503 89.1483C478.503 93.4323 476.813 97.5363 473.805 100.565C470.798 103.595 466.723 105.297 462.47 105.297H447.152V123.245C447.152 124.377 446.896 124.737 445.824 124.737H443.424C442.352 124.737 441.943 124.377 441.943 123.245V74.4912C441.943 73.3598 442.352 72.9998 443.424 72.9998H462.47ZM462.01 100.205C463.471 100.205 464.921 99.9175 466.269 99.3518C467.622 98.7912 468.847 97.9632 469.879 96.9243C470.915 95.8803 471.732 94.646 472.294 93.2832C472.855 91.9255 473.141 90.4649 473.141 88.994C473.141 87.5232 472.855 86.0626 472.294 84.7049C471.732 83.342 470.915 82.1078 469.879 81.0689C468.847 80.0249 467.622 79.202 466.269 78.6363C464.921 78.0706 463.471 77.7826 462.01 77.7826H446.692V100.205H462.01Z" fill="black"/>
<path d="M518.381 71.9713C522.323 71.5341 526.3 72.3878 529.721 74.409C533.142 76.425 535.828 79.5055 537.375 83.1827C537.784 84.0055 537.375 84.6741 536.558 85.0855L534.312 86.1141C533.393 86.4741 533.035 86.4227 532.473 85.4455C531.314 82.7147 529.328 80.4261 526.795 78.909C524.258 77.397 521.312 76.7284 518.381 77.0113C509.751 77.0113 505.054 80.457 505.054 86.6284C505.003 88.5158 505.631 90.357 506.826 91.8124C508.015 93.2678 509.69 94.2398 511.539 94.5484C514.286 95.4535 517.13 96.0038 520.015 96.1941C523.502 96.3844 526.944 97.0941 530.227 98.3027C532.744 99.105 534.909 100.756 536.359 102.972C537.809 105.194 538.458 107.848 538.192 110.491C538.192 120.108 531.248 125.92 518.483 125.92C514.296 126.403 510.068 125.426 506.509 123.153C502.955 120.88 500.275 117.444 498.927 113.423C498.835 113.243 498.789 113.037 498.784 112.836C498.779 112.631 498.819 112.425 498.901 112.24C498.988 112.055 499.11 111.885 499.264 111.756C499.417 111.623 499.595 111.525 499.795 111.468L502.041 110.646C502.215 110.574 502.409 110.538 502.598 110.543C502.787 110.548 502.976 110.594 503.149 110.676C503.323 110.759 503.476 110.877 503.604 111.021C503.726 111.165 503.823 111.335 503.879 111.52C505.018 114.426 507.05 116.889 509.68 118.555C512.304 120.216 515.389 120.998 518.483 120.777C528.133 120.777 532.882 117.383 532.882 110.491C532.974 108.681 532.422 106.896 531.325 105.456C530.232 104.011 528.664 103.008 526.908 102.623C524.263 101.831 521.541 101.347 518.789 101.183L513.275 100.463C511.549 100.092 509.843 99.6295 508.169 99.0741C506.514 98.5701 504.967 97.7524 503.624 96.657C502.266 95.4227 501.199 93.9004 500.494 92.2033C499.79 90.5061 499.463 88.6752 499.539 86.8341C499.897 77.8341 506.586 71.9713 518.381 71.9713Z" fill="black"/>
<path d="M565.714 107.148C565.929 110.784 567.517 114.204 570.151 116.699C572.786 119.198 576.269 120.587 579.884 120.587C583.499 120.587 586.981 119.198 589.616 116.699C592.251 114.204 593.833 110.784 594.053 107.148V74.4912C594.053 73.3598 594.41 72.9998 595.534 72.9998H597.883C599.006 72.9998 599.363 73.3598 599.363 74.4912V107.097C599.363 118.771 592.521 125.817 579.909 125.817C567.297 125.817 560.455 118.771 560.455 107.097V74.4912C560.455 73.3598 560.812 72.9998 561.885 72.9998H564.285C565.357 72.9998 565.714 73.3598 565.714 74.4912V107.148Z" fill="black"/>
<path d="M669.828 72.9998C670.952 72.9998 671.309 73.3598 671.309 74.4912V123.245C671.309 124.377 670.952 124.737 669.828 124.737H667.684C666.611 124.737 666.254 124.377 666.254 123.245V93.5712C666.254 89.2563 666.545 84.9415 667.122 80.6626H666.816C665.223 84.5763 663.359 88.3718 661.25 92.0283L650.272 111.52C650.139 111.859 649.904 112.147 649.603 112.348C649.302 112.553 648.95 112.656 648.587 112.651H647.157C646.79 112.656 646.432 112.548 646.121 112.348C645.814 112.147 645.569 111.859 645.421 111.52L634.29 91.8226C632.314 88.2226 630.609 84.4735 629.184 80.6112H628.878C629.398 84.9312 629.674 89.2769 629.695 93.6226V123.245C629.695 124.377 629.337 124.737 628.214 124.737H626.222C625.099 124.737 624.742 124.377 624.742 123.245V74.4912C624.742 73.3598 625.099 72.9998 626.222 72.9998H628.061C628.479 72.9638 628.903 73.0563 629.266 73.2672C629.633 73.4781 629.924 73.7969 630.103 74.1826L647.974 106.171L665.743 74.4912C666.305 73.4112 666.611 73.2569 667.735 73.2569L669.828 72.9998Z" fill="black"/>
<path d="M86.0002 116.92V154.103C86.0002 155.527 85.4386 156.895 84.4378 157.903C83.437 158.911 82.0788 159.477 80.6644 159.477C79.25 159.477 77.8918 158.911 76.891 157.903C75.8902 156.895 75.3286 155.527 75.3286 154.103V116.971C76.8144 118.067 78.5964 118.674 80.4346 118.72C82.4413 118.776 84.402 118.144 86.0002 116.92ZM131.444 106.171C130.091 106.171 128.789 106.711 127.834 107.678C126.874 108.64 126.338 109.951 126.338 111.314V117.794C126.338 119.219 126.9 120.587 127.901 121.595C128.901 122.603 130.26 123.168 131.674 123.168C133.088 123.168 134.447 122.603 135.447 121.595C136.448 120.587 137.01 119.219 137.01 117.794V111.571C137.051 110.836 136.933 110.095 136.663 109.411C136.392 108.722 135.983 108.1 135.452 107.591C134.927 107.076 134.293 106.686 133.604 106.439C132.91 106.197 132.174 106.104 131.444 106.171ZM63.7378 131.011C61.8996 130.955 60.1227 130.348 58.6317 129.263V166.548C58.6317 167.983 59.1985 169.356 60.2044 170.37C61.2052 171.378 62.5736 171.948 63.9931 171.948C65.4126 171.948 66.781 171.378 67.7818 170.37C68.7877 169.356 69.3545 167.983 69.3545 166.548V129.52C67.6848 130.605 65.719 131.13 63.7378 131.011ZM114.798 95.0113C114.104 94.9753 113.415 95.0833 112.766 95.325C112.118 95.5719 111.525 95.9422 111.02 96.4256C110.52 96.9039 110.121 97.485 109.851 98.1228C109.575 98.7656 109.437 99.4548 109.437 100.154V128.8C109.437 130.235 110.004 131.608 111.005 132.621C112.011 133.629 113.374 134.2 114.798 134.2C116.218 134.2 117.586 133.629 118.587 132.621C119.593 131.608 120.16 130.235 120.16 128.8V100.514C120.201 99.7736 120.083 99.0279 119.807 98.3388C119.537 97.6496 119.123 97.0222 118.587 96.513C118.051 95.9988 117.413 95.6079 116.718 95.3662C116.019 95.1245 115.278 95.037 114.543 95.1142L114.798 95.0113ZM97.8463 106.017C95.9213 106.002 94.0525 105.395 92.4849 104.268V141.657C92.4849 143.087 93.0517 144.465 94.0525 145.473C95.0635 146.486 96.4217 147.057 97.8463 147.057C99.2709 147.057 100.629 146.486 101.64 145.473C102.641 144.465 103.208 143.087 103.208 141.657V104.32C101.589 105.534 99.613 106.166 97.591 106.12L97.8463 106.017ZM52.147 134.663V30.2113C52.1317 28.9359 51.6211 27.7222 50.7225 26.8273C49.8238 25.9325 48.6136 25.4285 47.3473 25.4285H46.224C44.9577 25.4285 43.7476 25.9325 42.8489 26.8273C41.9502 27.7222 41.4396 28.9359 41.4243 30.2113V134.663C41.4243 135.943 41.9298 137.172 42.8285 138.083C43.7323 138.988 44.9526 139.497 46.224 139.497H47.3473C48.6188 139.497 49.8391 138.988 50.7429 138.083C51.6415 137.172 52.147 135.943 52.147 134.663ZM64.2995 127.051H63.1761C61.9047 127.051 60.6844 126.542 59.7806 125.637C58.8819 124.727 58.3764 123.498 58.3764 122.217V42.657C58.3918 41.3816 58.9024 40.1679 59.801 39.273C60.6997 38.3782 61.9098 37.8742 63.1761 37.8742H64.2995C65.5658 37.8742 66.7759 38.3782 67.6746 39.273C68.5732 40.1679 69.0838 41.3816 69.0992 42.657V122.32C69.0992 123.6 68.5937 124.83 67.695 125.74C66.7912 126.645 65.5709 127.154 64.2995 127.154V127.051ZM81.2005 114.811H80.0261C78.7649 114.811 77.5599 114.307 76.6663 113.412C75.7779 112.512 75.2775 111.299 75.2775 110.028V54.9999C75.2724 54.3673 75.3898 53.7399 75.6247 53.1536C75.8596 52.5673 76.2068 52.0325 76.651 51.585C77.0901 51.1325 77.6161 50.7776 78.1982 50.5359C78.7751 50.289 79.3981 50.1656 80.0261 50.1656H81.2005C82.4668 50.181 83.6719 50.6953 84.5603 51.6005C85.4488 52.5056 85.9492 53.7245 85.9492 54.9999V110.028C85.9492 111.299 85.4488 112.512 84.5603 113.412C83.6668 114.307 82.4617 114.811 81.2005 114.811ZM98.1016 102.211H97.0293C95.763 102.211 94.5529 101.707 93.6542 100.812C92.7555 99.9176 92.2449 98.7039 92.2296 97.4285V67.8056C92.1888 67.1473 92.2807 66.4839 92.5053 65.8616C92.7249 65.2393 93.0721 64.6685 93.5215 64.185C93.9708 63.7016 94.5171 63.321 95.1196 63.0588C95.7222 62.7965 96.3706 62.6628 97.0293 62.6628H98.1526C99.4241 62.6628 100.644 63.1719 101.548 64.077C102.447 64.9873 102.952 66.2165 102.952 67.497V97.3256C102.957 97.9633 102.84 98.601 102.6 99.1925C102.365 99.7839 102.013 100.324 101.563 100.776C101.119 101.229 100.588 101.594 100.001 101.836C99.4138 102.083 98.7858 102.211 98.1526 102.211H98.1016ZM115.054 91.1542H113.93C112.659 91.1542 111.439 90.645 110.535 89.7399C109.636 88.8296 109.131 87.6005 109.131 86.3199V78.657C109.146 77.3816 109.657 76.1679 110.555 75.273C111.454 74.3782 112.664 73.8742 113.93 73.8742H115.054C116.32 73.8742 117.53 74.3782 118.429 75.273C119.327 76.1679 119.838 77.3816 119.853 78.657V86.3199C119.853 87.5953 119.353 88.8142 118.465 89.7193C117.576 90.6245 116.371 91.1388 115.105 91.1542H115.054Z" fill="black"/>
</svg>
