<svg width="269" height="200" viewBox="0 0 269 200" fill="none" xmlns="http://www.w3.org/2000/svg">
<g clip-path="url(#clip0_10_168)">
<path d="M218.798 38.5474C218.798 40.8109 220.633 42.6463 222.897 42.6463H226.995C229.259 42.6463 231.094 40.8109 231.094 38.5518C231.094 36.2882 229.259 34.4529 226.995 34.4529H222.897C221.808 34.4529 220.768 34.8811 219.999 35.6502C219.23 36.4193 218.798 37.4593 218.798 38.5474ZM99.996 165.547H119.896L114.102 159.752C112.568 158.219 110.483 157.353 108.312 157.353H99.996C68.3193 157.353 42.6423 131.677 42.6423 99.9999C42.6423 68.3232 68.3193 42.6463 99.996 42.6463H165.543C197.22 42.6463 222.897 68.3232 222.897 99.9999C222.897 131.677 197.22 157.353 165.543 157.353H141.024C137.764 157.353 134.64 156.06 132.332 153.753L125.546 146.966C121.705 143.125 116.492 140.967 111.06 140.967H99.996C77.3691 140.967 59.0291 122.627 59.0291 99.9999C59.0291 77.373 77.3691 59.033 99.996 59.033H165.543C188.17 59.033 206.51 77.373 206.51 99.9999C206.51 122.627 188.17 140.967 165.543 140.967H149.799C146.539 140.967 143.414 139.673 141.107 137.366L134.321 130.58C130.48 126.739 125.267 124.58 119.835 124.58H99.996C86.419 124.58 75.4158 113.577 75.4158 99.9999C75.4158 86.4229 86.419 75.4197 99.996 75.4197H165.543C179.033 75.4023 190.018 86.2612 190.154 99.7508C190.289 113.245 179.526 124.322 166.037 124.576L160.041 124.58C156.781 124.58 153.657 123.287 151.35 120.979L144.564 114.193C141.43 111.06 137.362 109.023 132.975 108.399L132.769 108.193H99.996C95.4688 108.193 91.8026 104.527 91.8026 99.9999C91.8026 95.4727 95.4688 91.8065 99.996 91.8065H165.543C170.07 91.8065 173.736 95.4727 173.736 99.9999C173.736 104.527 170.07 108.193 165.543 108.193H149.156L154.951 113.988C156.489 115.521 158.569 116.387 160.745 116.387H165.543C174.593 116.387 181.93 109.05 181.93 99.9999C181.93 90.95 174.593 83.6131 165.543 83.6131H99.996C90.9461 83.6131 83.6092 90.95 83.6092 99.9999C83.6092 109.05 90.9461 116.387 99.996 116.387H130.078C133.338 116.387 136.466 117.68 138.769 119.987L145.555 126.774C149.397 130.615 154.61 132.773 160.041 132.773H167.592V132.712C185.281 131.628 198.902 116.688 198.347 98.973C197.796 81.2622 183.262 67.2002 165.543 67.2264H99.996C81.8962 67.2264 67.2225 81.9002 67.2225 99.9999C67.2225 118.1 81.8962 132.773 99.996 132.773H119.835C123.095 132.773 126.223 134.067 128.531 136.374L135.313 143.16C139.154 147.001 144.367 149.16 149.799 149.16H165.543C192.692 149.16 214.703 127.149 214.703 99.9999C214.703 72.8503 192.692 50.8396 165.543 50.8396H99.996C72.8464 50.8396 50.8357 72.8503 50.8357 99.9999C50.8357 127.149 72.8464 149.16 99.996 149.16H111.06C114.32 149.16 117.449 150.454 119.752 152.761L126.538 159.547C130.379 163.388 135.592 165.547 141.024 165.547H165.543C201.742 165.547 231.09 136.199 231.09 99.9999C231.09 63.8004 201.742 34.4529 165.543 34.4529H99.996C63.7965 34.4529 34.449 63.8004 34.449 99.9999C34.449 136.199 63.7965 165.547 99.996 165.547Z" fill="black"/>
</g>
<defs>
<clipPath id="clip0_10_168">
<rect width="201.011" height="131.094" fill="white" transform="translate(33.9946 34.4529)"/>
</clipPath>
</defs>
</svg>
