<svg style="width:100%;height:100%;" xmlns="http://www.w3.org/2000/svg"><defs><svg viewBox="0 0 118 26" id="svg11840305710"><path d="M 19.568 11.643 C 18.929 12.286 18.609 13.18 18.696 14.083 L 18.681 14.068 C 18.771 15.13 18.388 16.178 17.634 16.932 C 16.88 17.686 15.832 18.069 14.77 17.98 L 14.785 17.995 C 13.499 17.875 12.275 18.575 11.726 19.744 C 11.177 20.913 11.42 22.302 12.334 23.215 C 13.248 24.128 14.636 24.37 15.805 23.82 C 16.974 23.27 17.673 22.046 17.552 20.76 L 17.568 20.775 C 17.478 19.712 17.861 18.664 18.615 17.91 C 19.369 17.156 20.417 16.773 21.48 16.863 L 21.464 16.848 C 22.879 16.977 24.196 16.115 24.644 14.767 C 25.093 13.419 24.555 11.94 23.345 11.195 C 22.136 10.45 20.573 10.636 19.571 11.643 Z" fill="var(--token-c5c4fdcb-9482-48bb-aedf-353188472aae, rgb(21, 21, 21))"></path><path d="M 13.42 16.03 L 13.404 16.015 C 14.307 16.106 15.204 15.786 15.846 15.144 C 16.488 14.502 16.808 13.606 16.718 12.703 L 16.734 12.718 C 16.645 11.656 17.028 10.608 17.782 9.854 C 18.536 9.1 19.584 8.717 20.646 8.807 L 20.63 8.792 C 21.916 8.913 23.14 8.214 23.69 7.045 C 24.24 5.875 23.998 4.487 23.084 3.573 C 22.17 2.659 20.782 2.417 19.612 2.967 C 18.443 3.517 17.744 4.741 17.865 6.027 L 17.85 6.011 C 17.939 7.073 17.556 8.121 16.802 8.875 C 16.048 9.629 15 10.012 13.938 9.922 L 13.953 9.938 C 13.05 9.847 12.153 10.167 11.511 10.809 C 10.869 11.451 10.549 12.347 10.639 13.25 L 10.624 13.235 C 10.713 14.297 10.33 15.345 9.577 16.099 C 8.823 16.853 7.775 17.236 6.713 17.147 L 6.728 17.162 C 5.442 17.041 4.218 17.74 3.668 18.909 C 3.118 20.079 3.36 21.467 4.274 22.381 C 5.188 23.295 6.576 23.537 7.746 22.987 C 8.915 22.437 9.614 21.213 9.493 19.927 L 9.508 19.942 C 9.418 18.879 9.801 17.831 10.555 17.077 C 11.309 16.323 12.357 15.94 13.42 16.03 Z" fill="var(--token-c5c4fdcb-9482-48bb-aedf-353188472aae, rgb(21, 21, 21))"></path><path d="M 7.835 14.357 C 8.474 13.714 8.794 12.819 8.706 11.917 L 8.722 11.932 C 8.632 10.869 9.016 9.821 9.77 9.067 C 10.524 8.313 11.572 7.93 12.635 8.02 L 12.619 8.005 C 13.905 8.125 15.128 7.427 15.678 6.258 C 16.227 5.089 15.984 3.701 15.071 2.788 C 14.158 1.875 12.77 1.632 11.601 2.181 C 10.432 2.731 9.734 3.954 9.854 5.24 L 9.839 5.225 C 9.929 6.287 9.546 7.335 8.792 8.089 C 8.038 8.843 6.99 9.226 5.928 9.137 L 5.943 9.152 C 4.529 9.024 3.212 9.887 2.764 11.234 C 2.316 12.582 2.854 14.061 4.063 14.805 C 5.273 15.55 6.835 15.365 7.837 14.358 L 7.835 14.358 Z M 33.65 6.046 L 36.124 6.046 L 36.124 18.09 L 33.65 18.09 Z M 37.526 13.966 C 37.519 12.196 38.58 10.595 40.213 9.913 C 41.847 9.23 43.731 9.6 44.985 10.85 C 46.239 12.099 46.617 13.982 45.941 15.618 C 45.264 17.254 43.668 18.321 41.898 18.321 C 40.737 18.334 39.62 17.88 38.798 17.061 C 37.976 16.242 37.517 15.127 37.526 13.966 Z M 43.796 13.966 C 43.768 12.924 42.906 12.1 41.864 12.118 C 40.822 12.137 39.989 12.992 39.999 14.034 C 40.008 15.076 40.856 15.916 41.898 15.916 C 42.415 15.93 42.914 15.727 43.274 15.357 C 43.635 14.987 43.824 14.482 43.796 13.966 Z M 56.135 9.84 L 56.135 17.674 C 56.135 20.446 53.973 21.618 51.779 21.618 C 50.204 21.736 48.695 20.964 47.869 19.618 L 49.981 18.397 C 50.33 19.101 51.079 19.515 51.861 19.436 C 52.356 19.505 52.855 19.346 53.218 19.002 C 53.581 18.659 53.768 18.169 53.726 17.671 L 53.726 16.917 C 53.138 17.636 52.244 18.034 51.316 17.989 C 49.064 17.904 47.282 16.053 47.282 13.799 C 47.282 11.545 49.064 9.694 51.316 9.609 C 52.244 9.564 53.138 9.962 53.726 10.681 L 53.726 9.839 L 56.135 9.841 Z M 53.727 13.8 C 53.761 12.984 53.295 12.229 52.551 11.894 C 51.806 11.558 50.932 11.709 50.343 12.275 C 49.754 12.84 49.568 13.707 49.874 14.465 C 50.179 15.222 50.914 15.718 51.731 15.717 C 52.257 15.753 52.774 15.566 53.154 15.201 C 53.534 14.836 53.742 14.327 53.727 13.8 Z M 57.537 13.966 C 57.53 12.196 58.591 10.597 60.224 9.915 C 61.857 9.233 63.74 9.602 64.994 10.852 C 66.248 12.101 66.625 13.982 65.95 15.618 C 65.274 17.254 63.679 18.321 61.909 18.321 C 60.748 18.334 59.631 17.88 58.809 17.061 C 57.987 16.242 57.528 15.127 57.537 13.966 Z M 63.807 13.966 C 63.78 12.923 62.917 12.098 61.874 12.116 C 60.831 12.135 59.998 12.991 60.008 14.034 C 60.017 15.077 60.866 15.917 61.909 15.916 C 62.426 15.93 62.925 15.727 63.285 15.357 C 63.646 14.987 63.835 14.482 63.807 13.966 Z M 67.436 7.63 C 67.436 6.81 68.101 6.145 68.921 6.145 C 69.741 6.145 70.406 6.81 70.406 7.63 C 70.406 8.45 69.741 9.115 68.921 9.115 C 68.104 9.107 67.444 8.447 67.436 7.63 Z M 67.686 9.84 L 70.162 9.84 L 70.162 18.09 L 67.682 18.09 Z M 80.849 13.966 C 80.907 15.067 80.524 16.147 79.783 16.964 C 79.043 17.782 78.007 18.27 76.905 18.321 C 75.976 18.371 75.074 18.001 74.448 17.314 L 74.448 21.39 L 71.973 21.39 L 71.973 9.84 L 74.448 9.84 L 74.448 10.616 C 75.074 9.929 75.976 9.559 76.905 9.61 C 78.007 9.661 79.043 10.15 79.783 10.968 C 80.524 11.785 80.907 12.864 80.849 13.966 Z M 78.374 13.966 C 78.348 12.888 77.457 12.033 76.378 12.05 C 75.3 12.068 74.438 12.952 74.447 14.03 C 74.456 15.109 75.333 15.978 76.411 15.978 C 76.947 16.002 77.468 15.796 77.843 15.412 C 78.218 15.028 78.411 14.502 78.374 13.966 Z M 88.486 15.615 C 88.486 17.512 86.837 18.321 85.056 18.321 C 83.583 18.455 82.177 17.677 81.508 16.358 L 83.652 15.137 C 83.831 15.751 84.414 16.156 85.052 16.11 C 85.645 16.11 85.942 15.928 85.942 15.6 C 85.942 14.69 81.884 15.17 81.884 12.316 C 81.884 10.516 83.402 9.61 85.118 9.61 C 86.432 9.568 87.664 10.244 88.335 11.375 L 86.223 12.513 C 86.034 12.071 85.599 11.785 85.118 11.787 C 84.688 11.787 84.424 11.954 84.424 12.249 C 84.428 13.19 88.486 12.562 88.486 15.615 Z M 97.527 9.84 L 97.527 18.09 L 95.052 18.09 L 95.052 17.315 C 94.473 18.009 93.596 18.383 92.694 18.322 C 91.027 18.322 89.61 17.134 89.61 14.905 L 89.61 9.841 L 92.085 9.841 L 92.085 14.543 C 92.042 14.941 92.178 15.337 92.455 15.625 C 92.731 15.914 93.121 16.067 93.52 16.043 C 94.428 16.043 95.055 15.515 95.055 14.343 L 95.055 9.843 L 97.527 9.841 Z M 111.718 13.025 L 111.718 18.09 L 109.243 18.09 L 109.243 13.24 C 109.243 12.414 108.848 11.887 108.056 11.887 C 107.231 11.887 106.768 12.464 106.768 13.437 L 106.768 18.09 L 104.294 18.09 L 104.294 13.24 C 104.294 12.414 103.898 11.887 103.106 11.887 C 102.281 11.887 101.819 12.464 101.819 13.437 L 101.819 18.09 L 99.344 18.09 L 99.344 9.84 L 101.819 9.84 L 101.819 10.598 C 102.341 9.915 103.173 9.542 104.03 9.608 C 104.892 9.567 105.712 9.98 106.191 10.698 C 106.747 9.947 107.651 9.536 108.583 9.609 C 110.478 9.61 111.718 10.963 111.718 13.025 Z M 113.812 9.79 C 114.826 9.79 115.649 8.968 115.649 7.954 C 115.649 6.939 114.826 6.117 113.812 6.117 C 112.798 6.117 111.976 6.939 111.976 7.954 C 111.976 8.968 112.798 9.79 113.812 9.79 Z" fill="var(--token-c5c4fdcb-9482-48bb-aedf-353188472aae, rgb(21, 21, 21))"></path></svg></defs><use href="#svg11840305710"></use></svg>