<svg style="width:100%;height:100%;" xmlns="http://www.w3.org/2000/svg"><defs><svg viewBox="0 0 66 26" id="svg10206822457"><g transform="translate(0.656 0.499)" id="ss10206822457_1"><path d="M 0 0.001 L 65 0.001 L 65 25.001 L 0 25.001 Z" fill="transparent"></path><path d="M 15.429 0.001 C 12.891 0.001 10.456 1.009 8.661 2.804 L 2.803 8.662 C -0.934 12.4 -0.934 18.46 2.803 22.198 C 6.541 25.936 12.602 25.936 16.339 22.198 L 20.391 18.146 L 32.196 6.34 C 33.32 5.215 34.948 4.755 36.494 5.125 C 38.041 5.495 39.284 6.642 39.776 8.154 L 43.502 4.428 C 41.943 1.98 39.357 0.373 36.472 0.057 C 33.587 -0.259 30.714 0.752 28.662 2.804 L 12.802 18.662 C 11.012 20.414 8.144 20.399 6.373 18.628 C 4.601 16.856 4.586 13.988 6.338 12.198 L 12.195 6.34 C 13.319 5.215 14.947 4.755 16.494 5.125 C 18.04 5.496 19.283 6.643 19.775 8.155 L 23.501 4.429 C 21.745 1.67 18.7 0 15.429 0.001 Z" fill="var(--token-c5c4fdcb-9482-48bb-aedf-353188472aae, rgb(21, 21, 21))"></path><path d="M 32.804 18.662 C 31.681 19.787 30.053 20.247 28.507 19.877 C 26.96 19.507 25.717 18.36 25.224 16.848 L 21.498 20.574 C 23.058 23.022 25.644 24.629 28.529 24.945 C 31.414 25.261 34.286 24.25 36.338 22.198 L 52.197 6.34 C 53.982 4.555 56.877 4.554 58.662 6.339 C 60.447 8.124 60.447 11.019 58.662 12.804 L 52.804 18.662 C 51.681 19.786 50.053 20.246 48.507 19.876 C 46.961 19.506 45.718 18.359 45.225 16.848 L 41.499 20.574 C 43.059 23.022 45.645 24.629 48.53 24.945 C 51.415 25.261 54.287 24.25 56.339 22.198 L 62.197 16.34 C 65.935 12.602 65.935 6.542 62.197 2.804 C 58.459 -0.933 52.399 -0.933 48.661 2.805 L 32.803 18.661 Z" fill="var(--token-c5c4fdcb-9482-48bb-aedf-353188472aae, rgb(21, 21, 21))"></path></g></svg></defs><use href="#svg10206822457"></use></svg>