<svg width="547" height="200" viewBox="0 0 547 200" fill="none" xmlns="http://www.w3.org/2000/svg">
<path d="M49.7949 153.221H150.356V52.6597H49.7949V153.221ZM131.008 93.2665H109.755V72.0075H131.003V93.2606L131.008 93.2665ZM69.1427 72.0075H90.4076V112.608H130.997V133.861H69.1486L69.1427 72.0075ZM215.845 52.6597C188.076 52.6597 165.564 75.1713 165.564 102.94C165.564 130.709 188.076 153.221 215.845 153.221C243.614 153.221 266.125 130.709 266.125 102.94C266.09 75.1831 243.602 52.695 215.845 52.6597ZM215.845 133.867C203.33 133.867 192.051 126.334 187.264 114.778C182.471 103.217 185.118 89.9144 193.962 81.0639C202.813 72.2133 216.115 69.5669 227.677 74.3539C239.232 79.1408 246.772 90.4202 246.772 102.934C246.748 120.006 232.916 133.844 215.845 133.867ZM446.054 52.6538C418.285 52.6538 395.773 75.1654 395.773 102.934C395.773 130.704 418.285 153.215 446.054 153.215C473.823 153.215 496.334 130.704 496.334 102.934C496.299 75.1772 473.811 52.6891 446.054 52.6538ZM446.054 133.867C433.539 133.873 422.26 126.34 417.467 114.778C412.674 103.223 415.321 89.9144 424.165 81.0639C433.01 72.2192 446.318 69.5669 457.874 74.3539C469.436 79.1408 476.975 90.4202 476.975 102.934C476.957 120.006 463.125 133.844 446.054 133.867ZM330.949 52.6538C303.18 52.6538 280.668 75.1654 280.668 102.934C280.668 130.704 303.18 153.215 330.949 153.215C358.718 153.215 381.23 130.704 381.23 102.934C381.194 75.1772 358.706 52.6891 330.949 52.6538ZM330.949 133.867C315.13 133.879 301.845 121.953 300.163 106.222C298.481 90.4907 308.943 76.0299 324.41 72.6955C339.876 69.3611 355.36 78.2411 360.306 93.2665H330.949V112.614H360.306C356.119 125.281 344.293 133.844 330.949 133.867Z" fill="black"/>
</svg>
