<svg viewBox="0 0 132 35" id="svg9431905877" xmlns="http://www.w3.org/2000/svg"><path d="M 30.52 12.25 C 30.88 12.25 31 12.38 31 12.73 L 31 20.65 L 35.07 20.65 C 35.42 20.65 35.55 20.78 35.55 21.13 L 35.55 21.83 C 35.55 22.18 35.42 22.31 35.07 22.31 L 29.71 22.31 C 29.36 22.31 29.22 22.18 29.22 21.83 L 29.22 12.73 C 29.22 12.38 29.36 12.25 29.71 12.25 Z" fill="var(--token-c5c4fdcb-9482-48bb-aedf-353188472aae, rgb(21, 21, 21))"></path><path d="M 39.1 15.74 C 39.1 13.43 40.56 12.04 43.1 12.04 C 45.64 12.04 47.1 13.43 47.1 15.74 L 47.1 18.82 C 47.1 21.13 45.63 22.52 43.1 22.52 C 40.57 22.52 39.1 21.13 39.1 18.82 Z M 45.42 15.74 C 45.42 14.44 44.61 13.74 43.15 13.74 C 41.69 13.74 40.89 14.45 40.89 15.74 L 40.89 18.84 C 40.89 20.15 41.69 20.84 43.15 20.84 C 44.61 20.84 45.42 20.12 45.42 18.84 Z" fill="var(--token-c5c4fdcb-9482-48bb-aedf-353188472aae, rgb(21, 21, 21))"></path><path d="M 59.01 16.8 C 59.4 16.8 59.49 16.93 59.49 17.28 L 59.49 19.18 C 59.501 19.628 59.411 20.072 59.228 20.48 C 59.044 20.889 58.772 21.251 58.43 21.54 C 57.582 22.215 56.512 22.551 55.43 22.48 C 52.84 22.48 51.43 21.09 51.43 18.78 L 51.43 15.68 C 51.43 13.4 52.89 12 55.43 12 C 57.43 12 58.73 12.79 59.28 14.37 C 59.311 14.429 59.328 14.495 59.328 14.562 C 59.329 14.629 59.315 14.695 59.285 14.755 C 59.256 14.815 59.214 14.868 59.161 14.909 C 59.108 14.949 59.046 14.977 58.98 14.99 L 58.2 15.26 C 57.86 15.38 57.72 15.31 57.6 14.96 C 57.434 14.533 57.131 14.173 56.738 13.938 C 56.345 13.702 55.885 13.604 55.43 13.66 C 53.96 13.66 53.16 14.37 53.16 15.66 L 53.16 18.84 C 53.16 20.15 53.97 20.84 55.43 20.84 C 56.89 20.84 57.79 20.17 57.79 19.19 L 57.79 18.45 L 55.62 18.45 C 55.26 18.45 55.13 18.31 55.13 17.96 L 55.13 17.28 C 55.13 16.93 55.26 16.8 55.62 16.8 Z" fill="var(--token-c5c4fdcb-9482-48bb-aedf-353188472aae, rgb(21, 21, 21))"></path><path d="M 63.62 15.74 C 63.62 13.43 65.08 12.04 67.62 12.04 C 70.16 12.04 71.62 13.43 71.62 15.74 L 71.62 18.82 C 71.62 21.13 70.15 22.52 67.62 22.52 C 65.09 22.52 63.62 21.13 63.62 18.82 Z M 69.93 15.74 C 69.93 14.44 69.12 13.74 67.67 13.74 C 66.22 13.74 65.4 14.45 65.4 15.74 L 65.4 18.84 C 65.4 20.15 66.21 20.84 67.67 20.84 C 69.13 20.84 69.93 20.12 69.93 18.84 Z" fill="var(--token-c5c4fdcb-9482-48bb-aedf-353188472aae, rgb(21, 21, 21))"></path><path d="M 76.33 12.54 C 76.33 12.32 76.4 12.25 76.62 12.25 L 77.08 12.25 C 77.3 12.25 77.35 12.32 77.35 12.54 L 77.35 22.02 C 77.35 22.24 77.35 22.31 77.08 22.31 L 76.62 22.31 C 76.4 22.31 76.33 22.24 76.33 22.02 Z" fill="var(--token-c5c4fdcb-9482-48bb-aedf-353188472aae, rgb(21, 21, 21))"></path><path d="M 86.46 12.25 C 87.293 12.25 88.091 12.581 88.68 13.17 C 89.269 13.758 89.6 14.557 89.6 15.39 C 89.6 16.223 89.269 17.021 88.68 17.61 C 88.091 18.199 87.293 18.53 86.46 18.53 L 83.46 18.53 L 83.46 22.02 C 83.46 22.24 83.41 22.31 83.2 22.31 L 82.73 22.31 C 82.52 22.31 82.44 22.24 82.44 22.02 L 82.44 12.54 C 82.44 12.32 82.52 12.25 82.73 12.25 Z M 86.37 17.54 C 86.656 17.54 86.94 17.484 87.204 17.374 C 87.469 17.265 87.709 17.104 87.911 16.902 C 88.114 16.699 88.274 16.459 88.384 16.194 C 88.494 15.93 88.55 15.646 88.55 15.36 C 88.55 15.074 88.494 14.79 88.384 14.526 C 88.274 14.261 88.114 14.021 87.911 13.819 C 87.709 13.616 87.469 13.456 87.204 13.346 C 86.94 13.236 86.656 13.18 86.37 13.18 L 83.37 13.18 L 83.37 17.54 Z" fill="var(--token-c5c4fdcb-9482-48bb-aedf-353188472aae, rgb(21, 21, 21))"></path><path d="M 97.41 12.05 C 98.182 11.965 98.961 12.131 99.631 12.524 C 100.301 12.916 100.827 13.515 101.13 14.23 C 101.21 14.39 101.13 14.52 100.97 14.6 L 100.53 14.8 C 100.35 14.87 100.28 14.86 100.17 14.67 C 99.943 14.139 99.554 13.694 99.058 13.399 C 98.561 13.105 97.984 12.975 97.41 13.03 C 95.72 13.03 94.8 13.7 94.8 14.9 C 94.79 15.267 94.913 15.625 95.147 15.908 C 95.38 16.191 95.708 16.38 96.07 16.44 C 96.608 16.616 97.165 16.723 97.73 16.76 C 98.413 16.797 99.087 16.935 99.73 17.17 C 100.223 17.326 100.647 17.647 100.931 18.078 C 101.215 18.51 101.342 19.026 101.29 19.54 C 101.29 21.41 99.93 22.54 97.43 22.54 C 96.61 22.634 95.782 22.444 95.085 22.002 C 94.389 21.56 93.864 20.892 93.6 20.11 C 93.582 20.075 93.573 20.035 93.572 19.996 C 93.571 19.956 93.579 19.916 93.595 19.88 C 93.612 19.844 93.636 19.811 93.666 19.786 C 93.696 19.76 93.731 19.741 93.77 19.73 L 94.21 19.57 C 94.244 19.556 94.282 19.549 94.319 19.55 C 94.356 19.551 94.393 19.56 94.427 19.576 C 94.461 19.592 94.491 19.615 94.516 19.643 C 94.54 19.671 94.559 19.704 94.57 19.74 C 94.793 20.305 95.191 20.784 95.706 21.108 C 96.22 21.431 96.824 21.583 97.43 21.54 C 99.32 21.54 100.25 20.88 100.25 19.54 C 100.268 19.188 100.16 18.841 99.945 18.561 C 99.731 18.28 99.424 18.085 99.08 18.01 C 98.562 17.856 98.029 17.762 97.49 17.73 L 96.41 17.59 C 96.072 17.518 95.738 17.428 95.41 17.32 C 95.086 17.222 94.783 17.063 94.52 16.85 C 94.254 16.61 94.045 16.314 93.907 15.984 C 93.769 15.654 93.705 15.298 93.72 14.94 C 93.79 13.19 95.1 12.05 97.41 12.05 Z" fill="var(--token-c5c4fdcb-9482-48bb-aedf-353188472aae, rgb(21, 21, 21))"></path><path d="M 106.68 18.89 C 106.722 19.597 107.033 20.262 107.549 20.747 C 108.065 21.233 108.747 21.503 109.455 21.503 C 110.163 21.503 110.845 21.233 111.361 20.747 C 111.877 20.262 112.187 19.597 112.23 18.89 L 112.23 12.54 C 112.23 12.32 112.3 12.25 112.52 12.25 L 112.98 12.25 C 113.2 12.25 113.27 12.32 113.27 12.54 L 113.27 18.88 C 113.27 21.15 111.93 22.52 109.46 22.52 C 106.99 22.52 105.65 21.15 105.65 18.88 L 105.65 12.54 C 105.65 12.32 105.72 12.25 105.93 12.25 L 106.4 12.25 C 106.61 12.25 106.68 12.32 106.68 12.54 Z" fill="var(--token-c5c4fdcb-9482-48bb-aedf-353188472aae, rgb(21, 21, 21))"></path><path d="M 127.07 12.25 C 127.29 12.25 127.36 12.32 127.36 12.54 L 127.36 22.02 C 127.36 22.24 127.29 22.31 127.07 22.31 L 126.65 22.31 C 126.44 22.31 126.37 22.24 126.37 22.02 L 126.37 16.25 C 126.37 15.411 126.427 14.572 126.54 13.74 L 126.48 13.74 C 126.168 14.501 125.803 15.239 125.39 15.95 L 123.24 19.74 C 123.214 19.806 123.168 19.862 123.109 19.901 C 123.05 19.941 122.981 19.961 122.91 19.96 L 122.63 19.96 C 122.558 19.961 122.488 19.94 122.427 19.901 C 122.367 19.862 122.319 19.806 122.29 19.74 L 120.11 15.91 C 119.723 15.21 119.389 14.481 119.11 13.73 L 119.05 13.73 C 119.152 14.57 119.206 15.415 119.21 16.26 L 119.21 22.02 C 119.21 22.24 119.14 22.31 118.92 22.31 L 118.53 22.31 C 118.31 22.31 118.24 22.24 118.24 22.02 L 118.24 12.54 C 118.24 12.32 118.31 12.25 118.53 12.25 L 118.89 12.25 C 118.972 12.243 119.055 12.261 119.126 12.302 C 119.198 12.343 119.255 12.405 119.29 12.48 L 122.79 18.7 L 126.27 12.54 C 126.38 12.33 126.44 12.3 126.66 12.3 Z" fill="var(--token-c5c4fdcb-9482-48bb-aedf-353188472aae, rgb(21, 21, 21))"></path><path d="M 12.73 20.79 L 12.73 28.02 C 12.73 28.297 12.62 28.563 12.424 28.759 C 12.228 28.955 11.962 29.065 11.685 29.065 C 11.408 29.065 11.142 28.955 10.946 28.759 C 10.75 28.563 10.64 28.297 10.64 28.02 L 10.64 20.8 C 10.931 21.013 11.28 21.131 11.64 21.14 C 12.033 21.151 12.417 21.028 12.73 20.79 Z M 21.63 18.7 C 21.365 18.7 21.11 18.805 20.923 18.993 C 20.735 19.18 20.63 19.435 20.63 19.7 L 20.63 20.96 C 20.63 21.237 20.74 21.503 20.936 21.699 C 21.132 21.895 21.398 22.005 21.675 22.005 C 21.952 22.005 22.218 21.895 22.414 21.699 C 22.61 21.503 22.72 21.237 22.72 20.96 L 22.72 19.75 C 22.728 19.607 22.705 19.463 22.652 19.33 C 22.599 19.196 22.519 19.075 22.415 18.976 C 22.312 18.876 22.188 18.8 22.053 18.752 C 21.917 18.705 21.773 18.687 21.63 18.7 Z M 8.37 23.53 C 8.01 23.519 7.662 23.401 7.37 23.19 L 7.37 30.44 C 7.37 30.719 7.481 30.986 7.678 31.183 C 7.874 31.379 8.142 31.49 8.42 31.49 C 8.698 31.49 8.966 31.379 9.162 31.183 C 9.359 30.986 9.47 30.719 9.47 30.44 L 9.47 23.24 C 9.143 23.451 8.758 23.553 8.37 23.53 Z M 18.37 16.53 C 18.234 16.523 18.099 16.544 17.972 16.591 C 17.845 16.639 17.729 16.711 17.63 16.805 C 17.532 16.898 17.454 17.011 17.401 17.135 C 17.347 17.26 17.32 17.394 17.32 17.53 L 17.32 23.1 C 17.32 23.379 17.431 23.646 17.627 23.843 C 17.824 24.039 18.091 24.15 18.37 24.15 C 18.648 24.15 18.916 24.039 19.112 23.843 C 19.309 23.646 19.42 23.379 19.42 23.1 L 19.42 17.6 C 19.428 17.456 19.405 17.311 19.351 17.177 C 19.298 17.043 19.217 16.921 19.112 16.822 C 19.007 16.722 18.882 16.646 18.746 16.599 C 18.609 16.552 18.464 16.535 18.32 16.55 Z M 15.05 18.67 C 14.673 18.667 14.307 18.549 14 18.33 L 14 25.6 C 14 25.878 14.111 26.146 14.307 26.342 C 14.505 26.539 14.771 26.65 15.05 26.65 C 15.329 26.65 15.595 26.539 15.793 26.342 C 15.989 26.146 16.1 25.878 16.1 25.6 L 16.1 18.34 C 15.783 18.576 15.396 18.699 15 18.69 Z M 6.1 24.24 L 6.1 3.93 C 6.097 3.682 5.997 3.446 5.821 3.272 C 5.645 3.098 5.408 3 5.16 3 L 4.94 3 C 4.692 3 4.455 3.098 4.279 3.272 C 4.103 3.446 4.003 3.682 4 3.93 L 4 24.24 C 4 24.489 4.099 24.728 4.275 24.905 C 4.452 25.081 4.691 25.18 4.94 25.18 L 5.16 25.18 C 5.409 25.18 5.648 25.081 5.825 24.905 C 6.001 24.728 6.1 24.489 6.1 24.24 Z M 8.48 22.76 L 8.26 22.76 C 8.011 22.76 7.772 22.661 7.595 22.485 C 7.419 22.308 7.32 22.069 7.32 21.82 L 7.32 6.35 C 7.323 6.102 7.423 5.866 7.599 5.692 C 7.775 5.518 8.012 5.42 8.26 5.42 L 8.48 5.42 C 8.728 5.42 8.965 5.518 9.141 5.692 C 9.317 5.866 9.417 6.102 9.42 6.35 L 9.42 21.84 C 9.42 22.089 9.321 22.328 9.145 22.505 C 8.968 22.681 8.729 22.78 8.48 22.78 Z M 11.79 20.38 L 11.56 20.38 C 11.313 20.38 11.077 20.282 10.902 20.108 C 10.728 19.933 10.63 19.697 10.63 19.45 L 10.63 8.75 C 10.629 8.627 10.652 8.505 10.698 8.391 C 10.744 8.277 10.812 8.173 10.899 8.086 C 10.985 7.998 11.088 7.929 11.202 7.882 C 11.315 7.834 11.437 7.81 11.56 7.81 L 11.79 7.81 C 12.038 7.813 12.274 7.913 12.448 8.089 C 12.622 8.265 12.72 8.502 12.72 8.75 L 12.72 19.45 C 12.72 19.697 12.622 19.933 12.448 20.108 C 12.273 20.282 12.037 20.38 11.79 20.38 Z M 15.1 17.93 L 14.89 17.93 C 14.642 17.93 14.405 17.832 14.229 17.658 C 14.053 17.484 13.953 17.248 13.95 17 L 13.95 11.24 C 13.942 11.112 13.96 10.983 14.004 10.862 C 14.047 10.741 14.115 10.63 14.203 10.536 C 14.291 10.442 14.398 10.368 14.516 10.317 C 14.634 10.266 14.761 10.24 14.89 10.24 L 15.11 10.24 C 15.359 10.24 15.598 10.339 15.775 10.515 C 15.951 10.692 16.05 10.931 16.05 11.18 L 16.05 16.98 C 16.051 17.104 16.028 17.228 15.981 17.343 C 15.935 17.458 15.866 17.563 15.778 17.651 C 15.691 17.739 15.587 17.81 15.472 17.857 C 15.357 17.905 15.234 17.93 15.11 17.93 Z M 18.42 15.78 L 18.2 15.78 C 17.951 15.78 17.712 15.681 17.535 15.505 C 17.359 15.328 17.26 15.089 17.26 14.84 L 17.26 13.35 C 17.263 13.102 17.363 12.866 17.539 12.692 C 17.715 12.518 17.952 12.42 18.2 12.42 L 18.42 12.42 C 18.668 12.42 18.905 12.518 19.081 12.692 C 19.257 12.866 19.357 13.102 19.36 13.35 L 19.36 14.84 C 19.36 15.088 19.262 15.325 19.088 15.501 C 18.914 15.677 18.678 15.777 18.43 15.78 Z" fill="var(--token-c5c4fdcb-9482-48bb-aedf-353188472aae, rgb(21, 21, 21))"></path></svg>