<svg width="271" height="200" viewBox="0 0 271 200" fill="none" xmlns="http://www.w3.org/2000/svg">
<path d="M78.3084 57.7356C69.727 57.7356 61.494 61.1438 55.4248 67.2129L35.6181 87.0196C22.9828 99.6583 22.9828 120.148 35.6181 132.787C48.2568 145.425 68.7499 145.425 81.3852 132.787L95.0856 119.086L135 79.1686C138.8 75.3648 144.305 73.8095 149.532 75.0605C154.763 76.3115 158.965 80.1897 160.629 85.302L173.227 72.7039C167.956 64.4268 159.212 58.9933 149.458 57.9249C139.703 56.8565 129.989 60.2748 123.051 67.2129L69.4261 120.831C63.3739 126.755 53.6768 126.704 47.6888 120.716C41.6974 114.725 41.6467 105.028 47.5704 98.9753L67.3738 79.1686C71.1742 75.3648 76.6787 73.8095 81.9093 75.0605C87.1365 76.3149 91.3393 80.1931 93.0028 85.3054L105.601 72.7073C99.6636 63.3787 89.3681 57.7322 78.3084 57.7356Z" fill="black"/>
<path d="M137.055 120.831C133.258 124.635 127.754 126.19 122.527 124.939C117.296 123.688 113.093 119.81 111.426 114.698L98.8281 127.296C104.103 135.573 112.846 141.007 122.601 142.075C132.356 143.143 142.066 139.725 149.004 132.787L202.626 79.1688C208.661 73.1335 218.449 73.1301 224.485 79.1655C230.52 85.2008 230.52 94.9892 224.485 101.025L204.678 120.831C200.881 124.632 195.377 126.187 190.149 124.936C184.922 123.685 180.719 119.807 179.052 114.698L166.454 127.296C171.729 135.573 180.473 141.007 190.227 142.075C199.982 143.143 209.692 139.725 216.63 132.787L236.437 112.98C249.076 100.342 249.076 79.8518 236.437 67.2131C223.798 54.5778 203.309 54.5778 190.67 67.2165L137.052 120.828L137.055 120.831Z" fill="black"/>
</svg>
