<svg width="24" height="24" viewBox="0 0 24 24" fill="none" xmlns="http://www.w3.org/2000/svg">
<path d="M11.9999 8.21651C11.2516 8.21651 10.5201 8.43841 9.89791 8.85415C9.27571 9.2699 8.79076 9.86081 8.50439 10.5522C8.21803 11.2435 8.1431 12.0043 8.28909 12.7382C8.43508 13.4721 8.79543 14.1463 9.32456 14.6754C9.8537 15.2046 10.5279 15.5649 11.2618 15.7109C11.9957 15.8569 12.7565 15.782 13.4478 15.4956C14.1392 15.2092 14.7301 14.7243 15.1458 14.1021C15.5616 13.4799 15.7835 12.7484 15.7835 12.0001C15.7824 10.9969 15.3835 10.0352 14.6742 9.32584C13.9648 8.61651 13.0031 8.21755 11.9999 8.21651ZM11.9999 14.5224C11.5011 14.5224 11.0134 14.3745 10.5986 14.0973C10.1838 13.8202 9.86049 13.4262 9.66958 12.9653C9.47866 12.5044 9.42871 11.9973 9.52604 11.508C9.62336 11.0187 9.8636 10.5692 10.2164 10.2165C10.5691 9.86372 11.0186 9.62349 11.5078 9.52616C11.9971 9.42883 12.5043 9.47879 12.9652 9.6697C13.4261 9.86061 13.82 10.1839 14.0972 10.5987C14.3744 11.0135 14.5223 11.5012 14.5223 12.0001C14.5223 12.669 14.2566 13.3106 13.7835 13.7836C13.3105 14.2567 12.6689 14.5224 11.9999 14.5224ZM15.7835 3.80237H8.21639C7.04607 3.80362 5.92404 4.26908 5.0965 5.09662C4.26896 5.92416 3.8035 7.04619 3.80225 8.21651V15.7836C3.8035 16.9539 4.26896 18.076 5.0965 18.9035C5.92404 19.731 7.04607 20.1965 8.21639 20.1978H15.7835C16.9538 20.1965 18.0758 19.731 18.9034 18.9035C19.7309 18.076 20.1964 16.9539 20.1976 15.7836V8.21651C20.1964 7.04619 19.7309 5.92416 18.9034 5.09662C18.0758 4.26908 16.9538 3.80362 15.7835 3.80237ZM18.9364 15.7836C18.9364 16.6198 18.6043 17.4218 18.013 18.0131C17.4217 18.6044 16.6197 18.9366 15.7835 18.9366H8.21639C7.38017 18.9366 6.5782 18.6044 5.98691 18.0131C5.39562 17.4218 5.06343 16.6198 5.06343 15.7836V8.21651C5.06343 7.38029 5.39562 6.57833 5.98691 5.98703C6.5782 5.39574 7.38017 5.06355 8.21639 5.06355H15.7835C16.6197 5.06355 17.4217 5.39574 18.013 5.98703C18.6043 6.57833 18.9364 7.38029 18.9364 8.21651V15.7836ZM17.0447 7.90121C17.0447 8.08829 16.9892 8.27117 16.8853 8.42672C16.7813 8.58227 16.6336 8.70351 16.4608 8.7751C16.2879 8.84669 16.0977 8.86542 15.9143 8.82893C15.7308 8.79243 15.5622 8.70234 15.4299 8.57006C15.2977 8.43777 15.2076 8.26923 15.1711 8.08575C15.1346 7.90226 15.1533 7.71208 15.2249 7.53924C15.2965 7.3664 15.4177 7.21867 15.5733 7.11474C15.7288 7.0108 15.9117 6.95533 16.0988 6.95533C16.3497 6.95533 16.5902 7.05498 16.7676 7.23237C16.945 7.40976 17.0447 7.65035 17.0447 7.90121Z" fill="black"/>
</svg>
