<svg style="width:100%;height:100%;" xmlns="http://www.w3.org/2000/svg"><defs><svg viewBox="0 0 46 30" id="svg10835363248"><g transform="translate(0.104 0)" id="ss10835363248_1"><path d="M 0 0.104 L 45 0.104 L 45 30.104 L 0 30.104 Z" fill="transparent"></path><path d="M 42.187 0.937 C 42.187 1.455 42.607 1.875 43.125 1.875 L 44.063 1.875 C 44.581 1.875 45.001 1.455 45.001 0.938 C 45.001 0.42 44.581 0 44.063 0 L 43.125 0 C 42.876 0 42.638 0.098 42.462 0.274 C 42.286 0.45 42.187 0.688 42.187 0.937 Z M 15 30 L 19.554 30 L 18.228 28.674 C 17.877 28.323 17.4 28.125 16.903 28.125 L 15 28.125 C 7.751 28.125 1.875 22.249 1.875 15 C 1.875 7.751 7.751 1.875 15 1.875 L 30 1.875 C 37.249 1.875 43.125 7.751 43.125 15 C 43.125 22.249 37.249 28.125 30 28.125 L 24.389 28.125 C 23.643 28.125 22.928 27.829 22.4 27.301 L 20.847 25.748 C 19.968 24.869 18.775 24.375 17.532 24.375 L 15 24.375 C 9.822 24.375 5.625 20.178 5.625 15 C 5.625 9.822 9.822 5.625 15 5.625 L 30 5.625 C 35.178 5.625 39.375 9.822 39.375 15 C 39.375 20.178 35.178 24.375 30 24.375 L 26.397 24.375 C 25.651 24.375 24.936 24.079 24.408 23.551 L 22.855 21.998 C 21.976 21.119 20.783 20.625 19.54 20.625 L 15 20.625 C 11.893 20.625 9.375 18.107 9.375 15 C 9.375 11.893 11.893 9.375 15 9.375 L 30 9.375 C 33.087 9.371 35.601 11.856 35.632 14.943 C 35.663 18.031 33.2 20.566 30.113 20.624 L 30.113 20.625 L 28.741 20.625 C 27.995 20.625 27.28 20.329 26.752 19.801 L 25.199 18.248 C 24.482 17.531 23.551 17.065 22.547 16.922 L 22.5 16.875 L 15 16.875 C 13.964 16.875 13.125 16.036 13.125 15 C 13.125 13.964 13.964 13.125 15 13.125 L 30 13.125 C 31.036 13.125 31.875 13.964 31.875 15 C 31.875 16.036 31.036 16.875 30 16.875 L 26.25 16.875 L 27.576 18.201 C 27.928 18.552 28.404 18.75 28.902 18.75 L 30 18.75 C 32.071 18.75 33.75 17.071 33.75 15 C 33.75 12.929 32.071 11.25 30 11.25 L 15 11.25 C 12.929 11.25 11.25 12.929 11.25 15 C 11.25 17.071 12.929 18.75 15 18.75 L 21.884 18.75 C 22.63 18.75 23.346 19.046 23.873 19.574 L 25.426 21.127 C 26.305 22.006 27.498 22.5 28.741 22.5 L 30.469 22.5 L 30.469 22.486 C 34.517 22.238 37.634 18.819 37.507 14.765 C 37.381 10.712 34.055 7.494 30 7.5 L 15 7.5 C 10.858 7.5 7.5 10.858 7.5 15 C 7.5 19.142 10.858 22.5 15 22.5 L 19.54 22.5 C 20.286 22.5 21.002 22.796 21.53 23.324 L 23.082 24.877 C 23.961 25.756 25.154 26.25 26.397 26.25 L 30 26.25 C 36.213 26.25 41.25 21.213 41.25 15 C 41.25 8.787 36.213 3.75 30 3.75 L 15 3.75 C 8.787 3.75 3.75 8.787 3.75 15 C 3.75 21.213 8.787 26.25 15 26.25 L 17.532 26.25 C 18.278 26.25 18.994 26.546 19.521 27.074 L 21.074 28.627 C 21.953 29.506 23.146 30 24.389 30 L 30 30 C 38.284 30 45 23.284 45 15 C 45 6.716 38.284 0 30 0 L 15 0 C 6.716 0 0 6.716 0 15 C 0 23.284 6.716 30 15 30 Z" fill="var(--token-c5c4fdcb-9482-48bb-aedf-353188472aae, rgb(21, 21, 21))"></path></g></svg></defs><use href="#svg10835363248"></use></svg>