<svg width="630" height="147" viewBox="0 0 630 147" fill="none" xmlns="http://www.w3.org/2000/svg">
<path d="M135.414 47.5713C137.252 47.5713 137.865 48.2399 137.865 50.0399V90.7713H158.646C160.433 90.7713 161.097 91.4399 161.097 93.2399V96.8399C161.097 98.6399 160.433 99.3084 158.646 99.3084H131.278C129.491 99.3084 128.776 98.6399 128.776 96.8399V50.0399C128.776 48.2399 129.491 47.5713 131.278 47.5713H135.414Z" fill="black"/>
<path d="M179.223 65.52C179.223 53.64 186.678 46.4915 199.647 46.4915C212.617 46.4915 220.072 53.64 220.072 65.52V81.36C220.072 93.24 212.566 100.389 199.647 100.389C186.729 100.389 179.223 93.24 179.223 81.36V65.52ZM211.493 65.52C211.493 58.8343 207.358 55.2343 199.903 55.2343C192.448 55.2343 188.363 58.8857 188.363 65.52V81.4629C188.363 88.2 192.448 91.7486 199.903 91.7486C207.358 91.7486 211.493 88.0457 211.493 81.4629V65.52Z" fill="black"/>
<path d="M280.885 70.9714C282.876 70.9714 283.336 71.6399 283.336 73.4399V83.2114C283.392 85.5154 282.933 87.7988 281.998 89.8971C281.059 92.0005 279.67 93.8622 277.924 95.3485C273.594 98.8199 268.13 100.548 262.605 100.183C249.381 100.183 242.181 93.0342 242.181 81.1542V65.2114C242.181 53.4856 249.636 46.2856 262.605 46.2856C272.818 46.2856 279.455 50.3485 282.264 58.4742C282.422 58.7776 282.509 59.1171 282.509 59.4616C282.514 59.8062 282.442 60.1456 282.289 60.4542C282.141 60.7628 281.927 61.0354 281.656 61.2462C281.385 61.4519 281.069 61.5959 280.732 61.6628L276.749 63.0514C275.013 63.6685 274.298 63.3085 273.686 61.5085C272.838 59.3125 271.291 57.4611 269.284 56.2525C267.277 55.0388 264.929 54.5348 262.605 54.8228C255.099 54.8228 251.015 58.4742 251.015 65.1085V81.4628C251.015 88.1999 255.151 91.7485 262.605 91.7485C270.06 91.7485 274.656 88.3028 274.656 83.2628V79.4571H263.576C261.737 79.4571 261.074 78.7371 261.074 76.9371V73.4399C261.074 71.6399 261.737 70.9714 263.576 70.9714H280.885Z" fill="black"/>
<path d="M304.424 65.52C304.424 53.64 311.879 46.4915 324.848 46.4915C337.817 46.4915 345.272 53.64 345.272 65.52V81.36C345.272 93.24 337.766 100.389 324.848 100.389C311.93 100.389 304.424 93.24 304.424 81.36V65.52ZM336.643 65.52C336.643 58.8343 332.507 55.2343 325.103 55.2343C317.7 55.2343 313.513 58.8857 313.513 65.52V81.4629C313.513 88.2 317.649 91.7486 325.103 91.7486C332.558 91.7486 336.643 88.0457 336.643 81.4629V65.52Z" fill="black"/>
<path d="M369.322 49.0627C369.322 47.9313 369.679 47.5713 370.803 47.5713H373.151C374.275 47.5713 374.53 47.9313 374.53 49.0627V97.817C374.53 98.9484 374.53 99.3084 373.151 99.3084H370.803C369.679 99.3084 369.322 98.9484 369.322 97.817V49.0627Z" fill="black"/>
<path d="M421.045 47.5713C425.299 47.5713 429.373 49.2736 432.381 52.3027C435.388 55.3267 437.078 59.4359 437.078 63.7199C437.078 68.0039 435.388 72.1079 432.381 75.137C429.373 78.1662 425.299 79.8684 421.045 79.8684H405.727V97.817C405.727 98.9484 405.472 99.3084 404.4 99.3084H402C400.928 99.3084 400.519 98.9484 400.519 97.817V49.0627C400.519 47.9313 400.928 47.5713 402 47.5713H421.045ZM420.586 74.777C422.046 74.777 423.496 74.489 424.844 73.9233C426.197 73.3627 427.423 72.5347 428.454 71.4959C429.491 70.4519 430.308 69.2176 430.869 67.8547C431.431 66.497 431.717 65.0364 431.717 63.5656C431.717 62.0947 431.431 60.6341 430.869 59.2764C430.308 57.9136 429.491 56.6793 428.454 55.6404C427.423 54.5964 426.197 53.7736 424.844 53.2079C423.496 52.6421 422.046 52.3541 420.586 52.3541H405.268V74.777H420.586Z" fill="black"/>
<path d="M476.956 46.5428C480.898 46.1056 484.876 46.9594 488.297 48.9805C491.718 50.9965 494.404 54.0771 495.951 57.7542C496.359 58.5771 495.951 59.2456 495.134 59.6571L492.887 60.6856C491.968 61.0456 491.611 60.9942 491.049 60.0171C489.89 57.2862 487.904 54.9976 485.371 53.4805C482.833 51.9685 479.887 51.2999 476.956 51.5828C468.327 51.5828 463.63 55.0285 463.63 61.1999C463.579 63.0874 464.207 64.9285 465.401 66.3839C466.591 67.8394 468.266 68.8114 470.114 69.1199C472.861 70.0251 475.705 70.5754 478.59 70.7656C482.078 70.9559 485.519 71.6656 488.802 72.8742C491.32 73.6765 493.485 75.3274 494.935 77.5439C496.385 79.7656 497.033 82.4194 496.768 85.0628C496.768 94.6799 489.824 100.491 477.059 100.491C472.872 100.975 468.644 99.9976 465.085 97.7245C461.531 95.4514 458.85 92.0159 457.502 87.9942C457.41 87.8142 457.364 87.6085 457.359 87.4079C457.354 87.2022 457.395 86.9965 457.477 86.8114C457.564 86.6262 457.686 86.4565 457.839 86.3279C457.992 86.1942 458.171 86.0965 458.37 86.0399L460.617 85.2171C460.791 85.1451 460.985 85.1091 461.174 85.1142C461.362 85.1194 461.551 85.1656 461.725 85.2479C461.899 85.3302 462.052 85.4485 462.179 85.5925C462.302 85.7365 462.399 85.9062 462.455 86.0914C463.594 88.9971 465.626 91.4605 468.256 93.1268C470.88 94.7879 473.964 95.5696 477.059 95.3485C486.709 95.3485 491.458 91.9542 491.458 85.0628C491.549 83.2525 490.998 81.4679 489.9 80.0279C488.808 78.5828 487.24 77.5799 485.484 77.1942C482.839 76.4022 480.117 75.9188 477.365 75.7542L471.85 75.0342C470.124 74.6639 468.419 74.2011 466.744 73.6456C465.09 73.1416 463.543 72.3239 462.2 71.2285C460.842 69.9942 459.774 68.4719 459.07 66.7748C458.365 65.0776 458.038 63.2468 458.115 61.4056C458.472 52.4056 465.161 46.5428 476.956 46.5428Z" fill="black"/>
<path d="M524.29 81.7199C524.504 85.3559 526.092 88.7759 528.727 91.2701C531.362 93.7696 534.844 95.1581 538.459 95.1581C542.074 95.1581 545.557 93.7696 548.191 91.2701C550.826 88.7759 552.409 85.3559 552.629 81.7199V49.0627C552.629 47.9313 552.986 47.5713 554.109 47.5713H556.458C557.582 47.5713 557.939 47.9313 557.939 49.0627V81.6684C557.939 93.3427 551.097 100.388 538.485 100.388C525.873 100.388 519.031 93.3427 519.031 81.6684V49.0627C519.031 47.9313 519.388 47.5713 520.46 47.5713H522.86C523.933 47.5713 524.29 47.9313 524.29 49.0627V81.7199Z" fill="black"/>
<path d="M628.404 47.5713C629.527 47.5713 629.885 47.9313 629.885 49.0627V97.817C629.885 98.9485 629.527 99.3084 628.404 99.3084H626.259C625.187 99.3084 624.83 98.9485 624.83 97.817V68.1427C624.83 63.8279 625.121 59.513 625.698 55.2342H625.391C623.798 59.1479 621.935 62.9433 619.826 66.5999L608.848 86.0913C608.715 86.4307 608.48 86.7187 608.179 86.9193C607.878 87.125 607.525 87.2279 607.163 87.2227H605.733C605.365 87.2279 605.008 87.1199 604.696 86.9193C604.39 86.7187 604.145 86.4307 603.997 86.0913L592.866 66.3942C590.89 62.7942 589.184 59.045 587.76 55.1827H587.453C587.974 59.5027 588.25 63.8485 588.27 68.1942V97.817C588.27 98.9485 587.913 99.3084 586.789 99.3084H584.798C583.675 99.3084 583.317 98.9485 583.317 97.817V49.0627C583.317 47.9313 583.675 47.5713 584.798 47.5713H586.636C587.055 47.5353 587.479 47.6279 587.841 47.8387C588.209 48.0496 588.5 48.3685 588.679 48.7542L606.55 80.7427L624.319 49.0627C624.881 47.9827 625.187 47.8285 626.31 47.8285L628.404 47.5713Z" fill="black"/>
<path d="M44.5759 91.4914V128.674C44.5759 130.099 44.0142 131.467 43.0135 132.475C42.0127 133.483 40.6545 134.049 39.2401 134.049C37.8257 134.049 36.4675 133.483 35.4667 132.475C34.4659 131.467 33.9042 130.099 33.9042 128.674V91.5429C35.3901 92.6383 37.1721 93.2451 39.0103 93.2914C41.017 93.348 42.9777 92.7154 44.5759 91.4914ZM90.0198 80.7429C88.6667 80.7429 87.3647 81.2829 86.4099 82.2497C85.4499 83.2114 84.9138 84.5229 84.9138 85.8857V92.3657C84.9138 93.7903 85.4755 95.1583 86.4762 96.1663C87.477 97.1743 88.8352 97.74 90.2496 97.74C91.664 97.74 93.0222 97.1743 94.023 96.1663C95.0238 95.1583 95.5854 93.7903 95.5854 92.3657V86.1429C95.6263 85.4074 95.5089 84.6669 95.2382 83.9829C94.9676 83.2937 94.5591 82.6714 94.0281 82.1623C93.5022 81.648 92.869 81.2572 92.1797 81.0103C91.4853 80.7686 90.75 80.676 90.0198 80.7429ZM22.3135 105.583C20.4753 105.526 18.6984 104.919 17.2074 103.834V141.12C17.2074 142.555 17.7742 143.928 18.7801 144.941C19.7809 145.949 21.1493 146.52 22.5688 146.52C23.9883 146.52 25.3567 145.949 26.3575 144.941C27.3634 143.928 27.9302 142.555 27.9302 141.12V104.091C26.2605 105.177 24.2946 105.701 22.3135 105.583ZM73.3741 69.5829C72.6797 69.5469 71.9904 69.6549 71.3419 69.8966C70.6934 70.1434 70.1011 70.5137 69.5956 70.9971C69.0952 71.4754 68.6969 72.0566 68.4263 72.6943C68.1506 73.3371 68.0127 74.0263 68.0127 74.7257V103.371C68.0127 104.806 68.5795 106.179 69.5803 107.193C70.5862 108.201 71.9495 108.771 73.3741 108.771C74.7936 108.771 76.162 108.201 77.1628 107.193C78.1687 106.179 78.7355 104.806 78.7355 103.371V75.0857C78.7763 74.3452 78.6589 73.5994 78.3831 72.9103C78.1125 72.2212 77.6989 71.5937 77.1628 71.0846C76.6266 70.5703 75.9884 70.1794 75.294 69.9377C74.5944 69.696 73.8541 69.6086 73.1188 69.6857L73.3741 69.5829ZM56.422 80.5886C54.497 80.5731 52.6282 79.9663 51.0606 78.84V116.229C51.0606 117.658 51.6274 119.037 52.6282 120.045C53.6392 121.058 54.9974 121.629 56.422 121.629C57.8466 121.629 59.2048 121.058 60.2158 120.045C61.2166 119.037 61.7833 117.658 61.7833 116.229V78.8914C60.1647 80.1051 58.1887 80.7377 56.1667 80.6914L56.422 80.5886ZM10.7227 109.234V4.78286C10.7074 3.50743 10.1968 2.29371 9.29814 1.39886C8.39947 0.504 7.18933 0 5.92303 0H4.7997C3.53339 0 2.32326 0.504 1.42459 1.39886C0.525923 2.29371 0.0153182 3.50743 0 4.78286V109.234C0 110.515 0.505501 111.744 1.40417 112.654C2.30794 113.559 3.52829 114.069 4.7997 114.069H5.92303C7.19444 114.069 8.41479 113.559 9.31856 112.654C10.2172 111.744 10.7227 110.515 10.7227 109.234ZM22.8751 101.623H21.7518C20.4804 101.623 19.2601 101.114 18.3563 100.209C17.4576 99.2983 16.9521 98.0691 16.9521 96.7886V17.2286C16.9674 15.9531 17.478 14.7394 18.3767 13.8446C19.2754 12.9497 20.4855 12.4457 21.7518 12.4457H22.8751C24.1415 12.4457 25.3516 12.9497 26.2503 13.8446C27.1489 14.7394 27.6595 15.9531 27.6748 17.2286V96.8914C27.6748 98.172 27.1693 99.4011 26.2707 100.311C25.3669 101.217 24.1466 101.726 22.8751 101.726V101.623ZM39.7762 89.3829H38.6018C37.3406 89.3829 36.1356 88.8789 35.242 87.984C34.3536 87.084 33.8532 85.8703 33.8532 84.6V29.5714C33.8481 28.9389 33.9655 28.3114 34.2004 27.7251C34.4353 27.1389 34.7825 26.604 35.2267 26.1566C35.6658 25.704 36.1918 25.3491 36.7738 25.1074C37.3508 24.8606 37.9738 24.7371 38.6018 24.7371H39.7762C41.0425 24.7526 42.2475 25.2669 43.136 26.172C44.0245 27.0771 44.5248 28.296 44.5248 29.5714V84.6C44.5248 85.8703 44.0245 87.084 43.136 87.984C42.2424 88.8789 41.0374 89.3829 39.7762 89.3829ZM55.605 76.7829C54.3387 76.7829 53.1286 76.2789 52.2299 75.384C51.3312 74.4892 50.8206 73.2754 50.8053 72V42.3771C50.7645 41.7189 50.8564 41.0554 51.081 40.4331C51.3006 39.8109 51.6478 39.24 52.0971 38.7566C52.5465 38.2731 53.0928 37.8926 53.6953 37.6303C54.2978 37.368 54.9463 37.2343 55.605 37.2343H56.7283C57.9997 37.2343 59.2201 37.7434 60.1239 38.6486C61.0225 39.5589 61.528 40.788 61.528 42.0686V71.8971C61.5331 72.5349 61.4157 73.1726 61.1757 73.764C60.9408 74.3554 60.5885 74.8954 60.1392 75.348C59.695 75.8006 59.1639 76.1657 58.5767 76.4074C57.9895 76.6543 57.3615 76.7829 56.7283 76.7829H55.605ZM72.5061 65.7257C71.2347 65.7257 70.0143 65.2166 69.1105 64.3114C68.2119 63.4011 67.7064 62.172 67.7064 60.8914V53.2286C67.7217 51.9531 68.2323 50.7394 69.131 49.8446C70.0296 48.9497 71.2398 48.4457 72.5061 48.4457H73.6294C74.8957 48.4457 76.1058 48.9497 77.0045 49.8446C77.9032 50.7394 78.4138 51.9531 78.4291 53.2286V60.8914C78.4291 62.1669 77.9287 63.3857 77.0402 64.2909C76.1518 65.196 74.9468 65.7103 73.6805 65.7257H72.5061Z" fill="black"/>
</svg>
