<svg width="509" height="100" viewBox="0 0 509 100" fill="none" xmlns="http://www.w3.org/2000/svg">
<path d="M76.2646 43.854C73.3913 46.7453 71.9524 50.7653 72.3436 54.8257L72.2761 54.7582C72.6808 59.5336 70.9586 64.246 67.5682 67.6365C64.1778 71.0269 59.4653 72.7491 54.6899 72.3489L54.7574 72.4163C48.9748 71.8768 43.471 75.0244 41.0023 80.2809C38.5337 85.5374 39.6264 91.7832 43.7362 95.8885C47.8461 99.9939 54.0874 101.082 59.3439 98.609C64.6004 96.1359 67.7436 90.632 67.1995 84.8494L67.2714 84.9169C66.8667 80.137 68.5889 75.4246 71.9793 72.0341C75.3698 68.6437 80.0822 66.9215 84.8621 67.3262L84.7901 67.2588C91.1528 67.8388 97.0748 63.9627 99.0893 57.9013C101.108 51.8399 98.6891 45.1895 93.2482 41.8395C87.8118 38.4896 80.7837 39.3259 76.2781 43.854H76.2646Z" fill="black"/>
<path d="M48.6194 63.5806L48.5475 63.5132C52.6079 63.9224 56.6413 62.4834 59.5281 59.5966C62.4149 56.7098 63.8539 52.6809 63.4492 48.6205L63.5211 48.6879C63.1209 43.9125 64.8431 39.2001 68.2335 35.8097C71.624 32.4192 76.3364 30.697 81.1118 31.1017L81.0398 31.0343C86.8224 31.5784 92.3263 28.4353 94.7994 23.1787C97.2725 17.9177 96.1843 11.6765 92.0745 7.56658C87.9646 3.45669 81.7233 2.36852 76.4623 4.84165C71.2058 7.31477 68.0627 12.8186 68.6068 18.6012L68.5393 18.5293C68.9395 23.3046 67.2173 28.0171 63.8269 31.4075C60.4364 34.7979 55.724 36.5201 50.9486 36.1154L51.0161 36.1874C46.9557 35.7782 42.9222 37.2171 40.0354 40.1039C37.1486 42.9907 35.7097 47.0197 36.1144 51.0801L36.0469 51.0126C36.4471 55.788 34.7249 60.5005 31.339 63.8909C27.9486 67.2813 23.2361 69.0035 18.4608 68.6033L18.5282 68.6708C12.7456 68.1267 7.24177 71.2698 4.76865 76.5263C2.29552 81.7873 3.3837 88.0286 7.49358 92.1385C11.6035 96.2484 17.8447 97.3365 23.1057 94.8634C28.3623 92.3903 31.5054 86.8865 30.9613 81.1038L31.0287 81.1713C30.624 76.3914 32.3462 71.679 35.7367 68.2885C39.1271 64.8981 43.8395 63.1759 48.6194 63.5806Z" fill="black"/>
<path d="M23.5063 56.0577C26.3796 53.1664 27.8185 49.142 27.4228 45.086L27.4947 45.1535C27.0901 40.3736 28.8167 35.6612 32.2072 32.2707C35.5976 28.8803 40.31 27.1581 45.0899 27.5628L45.018 27.4954C50.8006 28.035 56.2999 24.8963 58.773 19.6398C61.2417 14.3833 60.149 8.14203 56.0436 4.03664C51.9382 -0.0687437 45.6969 -1.16142 40.4404 1.30721C35.1839 3.78034 32.0453 9.27967 32.5849 15.0623L32.5174 14.9948C32.9221 19.7702 31.1999 24.4826 27.8095 27.8731C24.4191 31.2635 19.7067 32.9857 14.9313 32.5855L14.9987 32.653C8.64054 32.0774 2.71853 35.9579 0.704057 42.0149C-1.31042 48.0763 1.10875 54.7267 6.54513 58.0722C11.986 61.4221 19.0097 60.5903 23.5153 56.0622L23.5063 56.0577ZM139.586 18.6865H150.71V72.8435H139.586V18.6865ZM157.015 54.2995C156.983 46.3406 161.754 39.1415 169.097 36.0749C176.444 33.0037 184.916 34.6674 190.555 40.2882C196.193 45.9044 197.893 54.3715 194.853 61.7279C191.809 69.0843 184.633 73.8822 176.674 73.8822C171.453 73.9407 166.43 71.8992 162.734 68.2165C159.038 64.5338 156.974 59.5201 157.015 54.2995ZM185.208 54.2995C185.082 49.6141 181.206 45.9089 176.521 45.9898C171.835 46.0753 168.09 49.9199 168.135 54.6053C168.175 59.2908 171.988 63.0679 176.674 63.0679C178.998 63.1309 181.242 62.218 182.861 60.5543C184.484 58.8906 185.334 56.6198 185.208 54.2995ZM240.692 35.7466V70.9729C240.692 83.4375 230.97 88.7075 221.104 88.7075C214.022 89.2381 207.237 85.7667 203.523 79.7143L213.02 74.2239C214.589 77.3895 217.957 79.2511 221.473 78.8959C223.699 79.2062 225.943 78.4912 227.575 76.9444C229.207 75.4021 230.048 73.1987 229.859 70.9594V67.569C227.215 70.802 223.195 72.5917 219.023 72.3893C208.896 72.0071 200.883 63.6839 200.883 53.5486C200.883 43.4133 208.896 35.0901 219.023 34.7079C223.195 34.5056 227.215 36.2952 229.859 39.5282V35.7421L240.692 35.7466ZM229.864 53.5531C230.017 49.8839 227.921 46.489 224.576 44.9826C221.226 43.4718 217.296 44.1507 214.647 46.6958C211.999 49.2364 211.162 53.1349 212.538 56.5433C213.91 59.9473 217.215 62.1776 220.889 62.1731C223.254 62.335 225.579 61.4941 227.287 59.8528C228.996 58.2116 229.931 55.9228 229.864 53.5531ZM246.996 54.2995C246.964 46.3406 251.735 39.1505 259.078 36.0839C266.421 33.0172 274.888 34.6764 280.527 40.2972C286.166 45.9134 287.861 54.3715 284.826 61.7279C281.786 69.0843 274.614 73.8822 266.655 73.8822C261.434 73.9407 256.412 71.8992 252.715 68.2165C249.019 64.5338 246.955 59.5201 246.996 54.2995ZM275.189 54.2995C275.068 49.6096 271.188 45.8999 266.498 45.9809C261.808 46.0663 258.062 49.9154 258.107 54.6053C258.147 59.2953 261.965 63.0724 266.655 63.0679C268.98 63.1309 271.223 62.218 272.842 60.5543C274.465 58.8906 275.315 56.6198 275.189 54.2995ZM291.508 25.8091C291.508 22.1219 294.498 19.1317 298.185 19.1317C301.872 19.1317 304.862 22.1219 304.862 25.8091C304.862 29.4963 301.872 32.4866 298.185 32.4866C294.511 32.4506 291.544 29.4829 291.508 25.8091ZM292.632 35.7466H303.765V72.8435H292.614L292.632 35.7466ZM351.82 54.2995C352.081 59.2503 350.359 64.1066 347.027 67.7803C343.7 71.4585 339.041 73.6529 334.086 73.8822C329.908 74.107 325.853 72.4433 323.038 69.3541V87.6822H311.909V35.7466H323.038V39.236C325.853 36.1468 329.908 34.4831 334.086 34.7124C339.041 34.9417 343.7 37.1406 347.027 40.8188C350.359 44.4925 352.081 49.3443 351.82 54.2995ZM340.691 54.2995C340.574 49.4522 336.568 45.6076 331.716 45.6841C326.869 45.765 322.993 49.74 323.033 54.5873C323.074 59.4391 327.017 63.3467 331.865 63.3467C334.275 63.4546 336.617 62.5283 338.304 60.8016C339.99 59.0749 340.858 56.7097 340.691 54.2995ZM386.161 61.7144C386.161 70.2445 378.746 73.8822 370.738 73.8822C364.114 74.4847 357.792 70.9864 354.784 65.0554L364.424 59.5651C365.229 62.326 367.851 64.1471 370.72 63.9402C373.386 63.9402 374.722 63.1219 374.722 61.647C374.722 57.5551 356.474 59.7134 356.474 46.8802C356.474 38.7863 363.3 34.7124 371.016 34.7124C376.925 34.5235 382.465 37.5632 385.482 42.6489L375.985 47.766C375.135 45.7785 373.179 44.4925 371.016 44.5015C369.083 44.5015 367.896 45.2524 367.896 46.5789C367.914 50.8102 386.161 47.9863 386.161 61.7144ZM426.815 35.7466V72.8435H415.685V69.3586C413.082 72.4793 409.138 74.161 405.083 73.8867C397.587 73.8867 391.215 68.5447 391.215 58.5218V35.7511H402.344V56.8941C402.151 58.6837 402.762 60.4644 404.008 61.7594C405.249 63.0589 407.003 63.7469 408.797 63.639C412.88 63.639 415.699 61.2648 415.699 55.9948V35.7601L426.815 35.7466ZM490.626 50.0682V72.8435H479.497V51.035C479.497 47.3208 477.72 44.9511 474.159 44.9511C470.449 44.9511 468.368 47.5457 468.368 51.9208V72.8435H457.243V51.035C457.243 47.3208 455.462 44.9511 451.901 44.9511C448.191 44.9511 446.114 47.5457 446.114 51.9208V72.8435H434.985V35.7466H446.114V39.155C448.461 36.0838 452.202 34.4066 456.056 34.7034C459.932 34.519 463.619 36.3761 465.773 39.6047C468.273 36.2277 472.338 34.3796 476.529 34.7079C485.05 34.7124 490.626 40.7963 490.626 50.0682ZM500.042 35.5218C504.601 35.5218 508.302 31.8256 508.302 27.266C508.302 22.702 504.601 19.0058 500.042 19.0058C495.482 19.0058 491.786 22.702 491.786 27.266C491.786 31.8256 495.482 35.5218 500.042 35.5218Z" fill="black"/>
</svg>
