<svg width="24" height="24" viewBox="0 0 24 24" fill="none" xmlns="http://www.w3.org/2000/svg">
<path d="M19.7635 7.15217C19.7197 7.04648 19.6456 6.95614 19.5505 6.89257C19.4554 6.82901 19.3436 6.79506 19.2292 6.79504H17.0293C16.7217 6.27176 16.284 5.83697 15.7586 5.53293C15.2333 5.2289 14.6382 5.06597 14.0313 5.05998C13.5791 5.05405 13.1303 5.13862 12.7113 5.30871C12.2922 5.4788 11.9115 5.73098 11.5913 6.05041C11.2619 6.37373 11.0004 6.75965 10.8222 7.18549C10.6441 7.61133 10.5529 8.06849 10.5539 8.53009V8.97036C7.64338 8.2026 5.26274 5.83498 5.23743 5.80967C5.15984 5.73139 5.0615 5.67692 4.95398 5.65266C4.84646 5.62839 4.73426 5.63536 4.63057 5.67273C4.52688 5.71011 4.43603 5.77633 4.36871 5.86361C4.3014 5.95088 4.26043 6.05558 4.25062 6.16536C3.93903 9.62029 4.94247 11.9322 5.84109 13.2632C6.27924 13.9211 6.81227 14.5107 7.42288 15.0127C6.32184 16.28 4.58823 16.9458 4.56944 16.9531C4.48783 16.9836 4.41418 17.0322 4.354 17.0953C4.29382 17.1583 4.24866 17.2341 4.22189 17.317C4.19513 17.4 4.18745 17.4879 4.19944 17.5742C4.21142 17.6605 4.24276 17.743 4.2911 17.8155C4.34532 17.8965 4.56221 18.1806 5.09212 18.4459C5.7471 18.7741 6.61246 18.9404 7.66217 18.9404C12.7712 18.9404 17.0401 15.0062 17.4761 9.94416L19.6384 7.78257C19.7192 7.70165 19.7743 7.59856 19.7966 7.48634C19.8188 7.37413 19.8073 7.25784 19.7635 7.15217ZM16.5102 9.27834C16.4111 9.37774 16.3515 9.50981 16.3425 9.64993C16.0483 14.211 12.2369 17.7837 7.66217 17.7837C6.89875 17.7837 6.36088 17.6825 5.98351 17.5611C6.81561 17.1092 7.97593 16.3321 8.722 15.2129C8.76579 15.1471 8.79562 15.0731 8.80966 14.9953C8.8237 14.9175 8.82165 14.8376 8.80363 14.7607C8.78561 14.6837 8.752 14.6113 8.70489 14.5478C8.65777 14.4843 8.59815 14.4312 8.5297 14.3917C8.49572 14.3722 5.35527 12.4875 5.34877 7.45147C6.50547 8.39129 8.62007 9.84946 11.0361 10.2558C11.1189 10.2697 11.2038 10.2655 11.2848 10.2433C11.3658 10.2212 11.441 10.1817 11.5052 10.1275C11.5694 10.0734 11.621 10.0059 11.6565 9.9298C11.692 9.85369 11.7104 9.77077 11.7106 9.6868V8.53009C11.71 8.22158 11.7711 7.91605 11.8902 7.63149C12.0094 7.34692 12.1843 7.08908 12.4047 6.87312C12.6159 6.66151 12.8674 6.49439 13.1443 6.38165C13.4212 6.2689 13.7179 6.21281 14.0168 6.21669C14.9321 6.22825 15.7873 6.78636 16.1451 7.60545C16.1903 7.70843 16.2644 7.79603 16.3585 7.85753C16.4526 7.91904 16.5626 7.95177 16.6751 7.95174H17.8318L16.5102 9.27834Z" fill="black"/>
</svg>
