<svg width="256" height="256" viewBox="0 0 256 256" fill="none" xmlns="http://www.w3.org/2000/svg">
<path d="M122.316 205.945L73.306 231.711C64.3444 236.423 53.8706 228.813 55.5821 218.834L64.9421 164.261C65.6218 160.298 64.3079 156.255 61.429 153.449L21.7794 114.8C14.5293 107.733 18.5301 95.4203 28.5492 93.9643L83.3438 86.0023C87.3224 85.4241 90.762 82.9253 92.5412 79.3199L117.046 29.6675C121.527 20.5886 134.473 20.5886 138.954 29.6675L163.459 79.3199C165.238 82.9251 168.677 85.4241 172.656 86.0023L227.451 93.9643C237.47 95.4203 241.471 107.733 234.22 114.8L194.571 153.449C191.692 156.255 190.378 160.298 191.058 164.261L200.418 218.834C202.129 228.813 191.655 236.423 182.694 231.711L133.684 205.945C130.126 204.074 125.874 204.074 122.316 205.945Z" fill="#FCD021"/>
</svg>
