<svg width="512" height="512" viewBox="0 0 512 512" fill="none" xmlns="http://www.w3.org/2000/svg">
<rect x="61" y="61" width="390" height="390" rx="195" fill="#2F5ACA"/>
<path d="M256 317.834C262.977 317.834 269.083 312.595 271.255 305.537C266.847 303.927 262.013 302.935 256.784 302.935C251.343 302.935 245.978 303.984 240.719 306.04C242.845 312.883 248.889 317.834 256 317.834Z" fill="white"/>
<path d="M287.236 314.997C285.604 318.686 283.368 322.111 280.577 325.13C274.015 332.229 265.287 336.138 256 336.138C242.224 336.138 230.319 327.736 224.829 315.64C224.339 316.046 223.85 316.451 223.363 316.876C219.063 320.631 215.718 324.439 213.476 327.263C215.597 330.288 218.823 334.405 223.073 338.463C233.374 348.294 244.715 353.279 256.783 353.279C279.039 353.279 293.236 335.676 298.753 327.257C296.34 324.015 292.446 319.365 287.236 314.997Z" fill="white"/>
<path d="M363.806 222.164C365.148 220.084 363.659 217.347 361.184 217.347C345.757 217.347 333.136 230.013 332.541 245.817C332.526 246.204 332.519 270.388 332.519 270.779C332.519 275.962 328.317 280.164 323.134 280.164C320.642 280.164 318.234 279.173 316.473 277.41C314.712 275.647 313.706 273.256 313.709 270.764L313.936 133.527C313.945 130.12 312.626 126.922 310.224 124.514C307.823 122.106 304.628 120.781 301.227 120.781H300.748C293.756 120.781 288.055 126.468 288.039 133.459C288.038 133.675 288.02 133.887 288.005 134.099L287.812 228.423C287.803 233.6 283.604 237.791 278.427 237.791H278.411C273.23 237.791 269.033 233.587 269.042 228.406L269.272 112.623C269.28 109.219 267.961 106.02 265.56 103.613C263.158 101.208 259.964 99.8818 256.563 99.8818H255.975C248.967 99.8818 243.266 105.583 243.266 112.591V133.478V133.49V228.046C243.266 233.099 239.383 237.447 234.335 237.685C228.946 237.939 224.496 233.644 224.496 228.311V133.496C224.496 133.494 224.496 133.491 224.496 133.49V133.484C224.493 126.479 218.793 120.78 211.787 120.78H211.411C204.403 120.78 198.702 126.482 198.702 133.49V269.988C198.702 275.041 194.818 279.389 189.771 279.627C184.381 279.881 179.932 274.976 179.932 269.643C179.932 269.324 179.927 245.211 179.916 244.895C179.411 229.282 166.553 216.736 150.82 216.736C148.351 216.736 146.852 219.469 148.191 221.543C151.996 227.437 154.115 234.402 154.115 241.723V309.315C154.115 365.682 200.234 412.431 256.601 412.117C283.626 411.966 309.004 401.364 328.118 382.224C347.37 362.947 357.952 337.327 357.916 310.083L357.87 242.344C357.87 242.109 357.879 241.874 357.896 241.641C358.024 234.577 360.126 227.869 363.806 222.164ZM317.788 330.95C316.975 332.609 297.423 371.583 256.784 371.583C216.363 371.583 195.237 332.883 194.358 331.235C192.822 328.358 192.934 324.88 194.65 322.107C195.598 320.576 218.3 284.632 256.784 284.632C295.477 284.632 316.631 320.84 317.513 322.382C319.019 325.015 319.123 328.224 317.788 330.95Z" fill="white"/>
</svg>
