<svg width="512" height="512" viewBox="0 0 512 512" fill="none" xmlns="http://www.w3.org/2000/svg">
<rect x="61" y="61" width="390" height="390" rx="195" fill="#E65C3D"/>
<path fill-rule="evenodd" clip-rule="evenodd" d="M361.491 300.618C361.491 266.362 341.659 224.276 328.307 199.824L316.419 179.71C317.532 187.438 317.092 195.311 315.123 202.866C312.538 209.496 308.583 215.505 303.517 220.501C302.939 203.063 297.791 186.082 288.586 171.259C286.84 168.668 282.389 161.608 277.431 155.315C267.65 142.851 255.561 132.388 241.824 124.497C246.632 134.44 249.518 145.202 250.331 156.216C249.937 169.175 245.824 176.95 226.386 202.303C206.949 227.656 211.738 265.461 211.738 265.461C210.185 260.179 208.069 255.079 205.427 250.249C200.357 240.389 179.68 228.783 178.384 228.107C178.947 229.516 188.244 252.672 175.567 268.391C159.453 288.504 146.551 303.491 150.101 333.577C154.608 371.832 198.159 382.537 218.16 385.41H218.217C224.245 386.312 228.076 386.481 228.076 386.481C214.91 381.974 207.405 365.409 206.368 356.299C205.563 351.11 205.891 345.807 207.331 340.756C208.77 335.706 211.286 331.027 214.707 327.041C217.389 323.368 227.299 313.52 230.634 310.139C239.38 302.672 245.472 292.573 247.998 281.355C249.359 273.511 249.604 265.514 248.725 257.601C257.998 263.484 265.854 271.346 271.729 280.622C276.311 287.892 278.855 296.259 279.093 304.849C281.588 302.378 283.536 299.41 284.812 296.139C285.781 292.393 285.99 288.49 285.426 284.662C285.426 284.662 308.277 316.213 307.635 344.248C306.829 379.382 285.099 386.464 285.065 386.503C285.296 386.447 361.491 376.948 361.491 300.618Z" fill="white"/>
</svg>
