<svg width="512" height="512" viewBox="0 0 512 512" fill="none" xmlns="http://www.w3.org/2000/svg">
<path d="M425.6 228.8L364.8 116.8C355.2 99.2 336 88 315.2 88H196.8C176 88 156.8 99.2 147.2 116.8L86.4 228.8C76.8 246.4 76.8 265.6 86.4 283.2L147.2 395.2C156.8 412.8 176 424 196.8 424H315.2C336 424 355.2 412.8 364.8 395.2L425.6 283.2C435.2 265.6 435.2 246.4 425.6 228.8ZM256 336C211.2 336 176 300.8 176 256C176 211.2 211.2 176 256 176C300.8 176 336 211.2 336 256C336 300.8 300.8 336 256 336Z" fill="#495E74"/>
</svg>
