<svg width="685" height="155" viewBox="0 0 685 155" fill="none" xmlns="http://www.w3.org/2000/svg">
<path d="M99.2959 43.0096C98.3204 42.0353 96.5087 40.713 93.8608 39.0427C91.3522 37.3725 88.2166 35.7718 84.4538 34.2407C80.8304 32.5704 76.8585 31.1785 72.5383 30.065C68.218 28.9515 63.8281 28.3947 59.3685 28.3947C51.4248 28.3947 45.5019 29.8562 41.5998 32.7792C37.6976 35.7022 35.7465 39.8083 35.7465 45.0975C35.7465 48.1597 36.4433 50.7347 37.837 52.8225C39.37 54.7712 41.5301 56.5111 44.3173 58.0421C47.1046 59.5732 50.5887 60.9651 54.7695 62.2178C59.0898 63.4705 64.0371 64.7929 69.6117 66.1847C76.8585 68.1334 83.4086 70.2213 89.2618 72.4483C95.2544 74.6753 100.271 77.4591 104.313 80.7997C108.494 84.1402 111.699 88.1767 113.929 92.9092C116.159 97.5025 117.274 103.209 117.274 110.03C117.274 117.963 115.741 124.784 112.675 130.49C109.748 136.058 105.776 140.582 100.759 144.061C95.7422 147.541 89.8889 150.116 83.1995 151.786C76.5101 153.318 69.542 154.083 62.2951 154.083C51.1461 154.083 40.1365 152.413 29.2662 149.072C18.3959 145.732 8.64049 140.999 0 134.875L12.7517 110.03C14.0059 111.282 16.2358 112.953 19.4411 115.04C22.7858 116.989 26.688 119.007 31.1476 121.095C35.6072 123.044 40.5545 124.714 45.9897 126.106C51.4248 127.498 56.9993 128.194 62.7132 128.194C78.6005 128.194 86.5442 123.113 86.5442 112.953C86.5442 109.612 85.6384 106.828 83.8267 104.601C82.0149 102.374 79.4367 100.425 76.092 98.7552C72.7473 97.0849 68.7058 95.5538 63.9675 94.1619C59.2291 92.77 53.9334 91.3085 48.0801 89.7774C40.9726 87.8288 34.771 85.7409 29.4752 83.5139C24.3188 81.1477 19.9985 78.4334 16.5145 75.3713C13.0304 72.3091 10.3825 68.6902 8.5708 64.5145C6.89845 60.3388 6.06228 55.3975 6.06228 49.6908C6.06228 42.1745 7.4559 35.4934 10.2432 29.6474C13.0304 23.8015 16.8629 18.9298 21.7406 15.0325C26.7576 11.1352 32.5412 8.21219 39.0912 6.26353C45.6413 4.17569 52.6791 3.13177 60.2047 3.13177C70.6569 3.13177 80.2729 4.80204 89.0528 8.1426C97.8326 11.344 105.498 15.1717 112.048 19.6258L99.2959 43.0096Z" fill="white"/>
<path d="M129.656 97.7112C129.656 90.0558 130.98 82.8179 133.628 75.9976C136.276 69.1773 140.108 63.1922 145.126 58.0421C150.143 52.8921 156.205 48.786 163.312 45.7238C170.42 42.6617 178.433 41.1306 187.352 41.1306C199.338 41.1306 209.511 43.7056 217.873 48.8556C226.374 54.0056 232.715 60.7563 236.896 69.1077L209.511 77.4591C207.142 73.4226 204.006 70.3604 200.104 68.2726C196.202 66.0456 191.882 64.932 187.143 64.932C183.102 64.932 179.339 65.7672 175.855 67.4375C172.371 68.9685 169.305 71.1956 166.657 74.1186C164.149 76.9024 162.128 80.3125 160.595 84.349C159.201 88.3855 158.504 92.8396 158.504 97.7112C158.504 102.583 159.271 107.037 160.804 111.073C162.337 115.11 164.358 118.59 166.866 121.513C169.514 124.436 172.58 126.732 176.064 128.403C179.548 129.934 183.241 130.699 187.143 130.699C192.16 130.699 196.759 129.447 200.94 126.941C205.261 124.436 208.257 121.374 209.929 117.755L237.314 126.106C233.551 134.457 227.35 141.278 218.709 146.567C210.069 151.856 199.686 154.501 187.561 154.501C178.642 154.501 170.629 152.97 163.521 149.907C156.414 146.845 150.352 142.739 145.335 137.589C140.318 132.3 136.415 126.245 133.628 119.425C130.98 112.465 129.656 105.227 129.656 97.7112Z" fill="white"/>
<path d="M284.444 154.501C279.148 154.501 274.2 153.666 269.601 151.995C265.002 150.186 261.031 147.75 257.686 144.688C254.341 141.486 251.693 137.798 249.742 133.622C247.931 129.447 247.025 124.853 247.025 119.842C247.025 114.692 248.14 109.96 250.369 105.645C252.739 101.191 255.944 97.4329 259.985 94.3707C264.166 91.3085 269.114 88.9423 274.828 87.272C280.541 85.4625 286.813 84.5578 293.642 84.5578C298.519 84.5578 303.258 84.9754 307.856 85.8105C312.595 86.6456 316.776 87.8288 320.399 89.3598V83.0963C320.399 75.8584 318.309 70.2909 314.128 66.3935C310.086 62.4962 304.024 60.5476 295.941 60.5476C290.088 60.5476 284.374 61.5915 278.799 63.6793C273.225 65.7672 267.511 68.8294 261.658 72.8659L253.087 55.1192C267.163 45.7934 282.353 41.1306 298.659 41.1306C314.407 41.1306 326.601 45.0279 335.241 52.8225C344.021 60.478 348.411 71.6131 348.411 86.2281V120.26C348.411 123.183 348.968 125.271 350.083 126.524C351.198 127.776 353.149 128.472 355.937 128.611V152.413C353.289 152.97 350.78 153.318 348.411 153.457C346.181 153.735 344.23 153.874 342.558 153.874C337.262 153.735 333.221 152.552 330.433 150.325C327.646 147.959 325.904 144.827 325.207 140.93L324.58 134.875C319.702 141.278 313.779 146.149 306.811 149.49C299.843 152.83 292.387 154.501 284.444 154.501ZM292.387 134.04C297.126 134.04 301.585 133.205 305.766 131.534C310.086 129.864 313.431 127.637 315.8 124.853C318.866 122.487 320.399 119.842 320.399 116.919V104.392C317.054 103.14 313.431 102.165 309.529 101.469C305.627 100.634 301.864 100.217 298.24 100.217C290.994 100.217 285.071 101.887 280.472 105.227C275.873 108.429 273.573 112.535 273.573 117.546C273.573 122.278 275.385 126.245 279.008 129.447C282.632 132.509 287.091 134.04 292.387 134.04Z" fill="white"/>
<path d="M374.986 0H402.998V116.084C402.998 124.575 406.83 128.82 414.495 128.82C416.028 128.82 417.77 128.542 419.721 127.985C421.812 127.428 423.763 126.802 425.574 126.106L429.337 148.446C425.574 150.255 421.184 151.647 416.167 152.622C411.15 153.596 406.621 154.083 402.58 154.083C393.8 154.083 386.971 151.786 382.093 147.193C377.355 142.461 374.986 135.78 374.986 127.15V0Z" fill="white"/>
<path d="M492.549 154.501C483.769 154.501 475.825 153.039 468.717 150.116C461.61 147.054 455.548 142.948 450.531 137.798C445.514 132.648 441.611 126.663 438.824 119.842C436.176 113.022 434.852 105.854 434.852 98.3376C434.852 90.543 436.176 83.2355 438.824 76.4152C441.472 69.4557 445.305 63.4009 450.322 58.2509C455.339 52.9617 461.401 48.786 468.508 45.7238C475.755 42.6617 483.838 41.1306 492.758 41.1306C501.677 41.1306 509.62 42.6617 516.589 45.7238C523.696 48.786 529.689 52.8921 534.566 58.0421C539.583 63.1922 543.346 69.1773 545.855 75.9976C548.503 82.8179 549.827 89.9166 549.827 97.2937C549.827 99.1031 549.757 100.843 549.618 102.513C549.618 104.184 549.478 105.575 549.199 106.689H464.537C464.955 111.004 466 114.832 467.672 118.172C469.345 121.513 471.505 124.366 474.153 126.732C476.801 129.099 479.797 130.908 483.142 132.161C486.486 133.413 489.97 134.04 493.594 134.04C499.168 134.04 504.394 132.717 509.272 130.073C514.289 127.289 517.704 123.67 519.515 119.216L543.555 125.897C539.514 134.249 533.033 141.138 524.114 146.567C515.334 151.856 504.812 154.501 492.549 154.501ZM520.979 88.5247C520.282 80.3125 517.216 73.7706 511.781 68.899C506.485 63.8881 500.004 61.3827 492.339 61.3827C488.577 61.3827 485.023 62.0786 481.678 63.4705C478.473 64.7233 475.616 66.5327 473.107 68.899C470.599 71.2652 468.508 74.1186 466.836 77.4591C465.303 80.7997 464.397 84.4882 464.119 88.5247H520.979Z" fill="white"/>
<path d="M579.148 4.17569L616.149 59.2949L652.941 4.17569H684.088L631.2 79.3382L682.416 152.413H651.268L616.149 99.3815L580.821 152.413H549.464L600.68 79.3382L547.792 4.17569H579.148Z" fill="white"/>
</svg>
