<svg width="512" height="512" viewBox="0 0 512 512" fill="none" xmlns="http://www.w3.org/2000/svg">
<path d="M377.902 133.268C372.851 133.268 368.759 129.174 368.759 124.125C368.759 119.076 372.851 114.982 377.902 114.982" stroke="white" stroke-width="36.5714" stroke-linecap="round" stroke-linejoin="round"/>
<path d="M377.902 133.268C382.952 133.268 387.045 129.174 387.045 124.125C387.045 119.076 382.952 114.982 377.902 114.982" stroke="white" stroke-width="36.5714" stroke-linecap="round" stroke-linejoin="round"/>
<path d="M31.3884 125.492C31.3884 73.5225 73.5178 31.3929 125.487 31.3929H376.419C428.387 31.3929 470.517 73.5225 470.517 125.492V376.422C470.517 428.39 428.387 470.521 376.419 470.521H125.487C73.5178 470.521 31.3884 428.39 31.3884 376.422V125.492Z" stroke="white" stroke-width="36.5714" stroke-linecap="round" stroke-linejoin="round"/>
<path d="M157.697 250.954C157.697 263.2 160.109 275.327 164.795 286.642C169.482 297.956 176.351 308.237 185.011 316.896C193.671 325.556 203.951 332.425 215.266 337.112C226.58 341.799 238.707 344.211 250.954 344.211C263.2 344.211 275.327 341.799 286.642 337.112C297.956 332.425 308.237 325.556 316.896 316.896C325.556 308.237 332.425 297.956 337.112 286.642C341.799 275.327 344.211 263.2 344.211 250.954C344.211 226.22 334.386 202.5 316.896 185.011C299.407 167.522 275.687 157.696 250.954 157.696C226.22 157.696 202.5 167.522 185.011 185.011C167.522 202.5 157.697 226.22 157.697 250.954Z" stroke="white" stroke-width="36.5714" stroke-linecap="round" stroke-linejoin="round"/>
</svg>
