<svg width="512" height="512" viewBox="0 0 512 512" fill="none" xmlns="http://www.w3.org/2000/svg">
<g clip-path="url(#clip0_2_13)">
<path d="M144.402 110C224.153 110 288.799 175.097 288.799 255.393C288.799 335.689 224.148 400.781 144.402 400.781C64.6556 400.781 0 335.689 0 255.393C0 175.097 64.6507 110 144.402 110ZM375.001 118.517C414.877 118.517 447.202 179.792 447.202 255.393H447.207C447.207 330.974 414.882 392.269 375.006 392.269C335.131 392.269 302.805 330.974 302.805 255.393C302.805 179.812 335.126 118.517 375.001 118.517ZM486.607 132.773C500.628 132.773 512 187.671 512 255.393C512 323.095 500.633 378.012 486.607 378.012C472.581 378.012 461.218 323.11 461.218 255.393C461.218 187.676 472.586 132.773 486.607 132.773Z" fill="white"/>
</g>
<defs>
<clipPath id="clip0_2_13">
<rect width="512" height="512" fill="white"/>
</clipPath>
</defs>
</svg>
